<svg width="46" height="37" viewBox="0 0 46 37" fill="none" xmlns="http://www.w3.org/2000/svg">
<path d="M0 0V4.44H5.19355V2.96H1.48387V1.48H6.23226L18.1032 23.68H44.5161V17.76H21.9747L20.4908 14.8H44.5161V8.88H17.5231L16.0392 5.92H44.5161V4.44H13.6382L16.606 10.36H43.0323V13.32H18.0898L21.0576 19.24H43.0323V22.2H18.9935L7.12258 0H0Z" fill="#8A675F"/>
<path d="M19.2903 26.64V29.6H20.7742V28.12H43.0323V29.6H44.5161V26.64H19.2903Z" fill="#8A675F"/>
<path fill-rule="evenodd" clip-rule="evenodd" d="M43.0323 37C44.6713 37 46 35.6748 46 34.04C46 32.4052 44.6713 31.08 43.0323 31.08C41.3932 31.08 40.0645 32.4052 40.0645 34.04C40.0645 35.6748 41.3932 37 43.0323 37ZM43.0323 35.52C43.8518 35.52 44.5161 34.8574 44.5161 34.04C44.5161 33.2226 43.8518 32.56 43.0323 32.56C42.2127 32.56 41.5484 33.2226 41.5484 34.04C41.5484 34.8574 42.2127 35.52 43.0323 35.52Z" fill="#8A675F"/>
<path fill-rule="evenodd" clip-rule="evenodd" d="M23.7419 34.04C23.7419 35.6748 22.4132 37 20.7742 37C19.1352 37 17.8065 35.6748 17.8065 34.04C17.8065 32.4052 19.1352 31.08 20.7742 31.08C22.4132 31.08 23.7419 32.4052 23.7419 34.04ZM22.2581 34.04C22.2581 34.8574 21.5937 35.52 20.7742 35.52C19.9547 35.52 19.2903 34.8574 19.2903 34.04C19.2903 33.2226 19.9547 32.56 20.7742 32.56C21.5937 32.56 22.2581 33.2226 22.2581 34.04Z" fill="#8A675F"/>
</svg>
