<svg width="58" height="38" viewBox="0 0 58 38" fill="none" xmlns="http://www.w3.org/2000/svg">
<path d="M0.384766 0.605469V5.03006H5.54679V3.5552H1.85963V2.08033H6.57919L18.3781 24.2033H44.6307V18.3038H22.2261L20.7512 15.3541H41.681V9.45465H17.8015L16.3266 6.50492H37.2564V5.03006H13.9402L16.8899 10.9295H40.2061V13.8792H18.3648L21.3145 19.7787H43.1558V22.7284H19.263L7.46411 0.605469H0.384766Z" fill="#8A675F"/>
<path d="M19.558 27.153V30.1027H21.0329V28.6279H43.1558V30.1027H44.6307V27.153H19.558Z" fill="#8A675F"/>
<path fill-rule="evenodd" clip-rule="evenodd" d="M46.1055 34.5273C46.1055 36.1564 44.7849 37.4771 43.1558 37.4771C41.5267 37.4771 40.2061 36.1564 40.2061 34.5273C40.2061 32.8982 41.5267 31.5776 43.1558 31.5776C44.7849 31.5776 46.1055 32.8982 46.1055 34.5273ZM44.6307 34.5273C44.6307 35.3419 43.9704 36.0022 43.1558 36.0022C42.3413 36.0022 41.681 35.3419 41.681 34.5273C41.681 33.7128 42.3413 33.0525 43.1558 33.0525C43.9704 33.0525 44.6307 33.7128 44.6307 34.5273Z" fill="#8A675F"/>
<path fill-rule="evenodd" clip-rule="evenodd" d="M23.9826 34.5273C23.9826 36.1564 22.6619 37.4771 21.0329 37.4771C19.4038 37.4771 18.0831 36.1564 18.0831 34.5273C18.0831 32.8982 19.4038 31.5776 21.0329 31.5776C22.6619 31.5776 23.9826 32.8982 23.9826 34.5273ZM22.5077 34.5273C22.5077 35.3419 21.8474 36.0022 21.0329 36.0022C20.2183 36.0022 19.558 35.3419 19.558 34.5273C19.558 33.7128 20.2183 33.0525 21.0329 33.0525C21.8474 33.0525 22.5077 33.7128 22.5077 34.5273Z" fill="#8A675F"/>
<path d="M46.1055 5.03006H49.0553V6.50492H46.1055V9.45465H44.6307V6.50492H41.681V5.03006H44.6307V2.08033H46.1055V5.03006Z" fill="#8A675F"/>
</svg>