<svg width="40" height="40" viewBox="0 0 40 40" fill="none" xmlns="http://www.w3.org/2000/svg">

<path d="M6.94727 11.9541V14.1444H9.32778V13.4143H7.62741V12.6842H9.80389L15.2451 23.6357H27.3517V20.7153H17.0196L16.3394 19.2551H25.9914V16.3347H14.9791L14.299 14.8745H23.951V14.1444H13.1985L14.5588 17.0648H25.3113V18.525H15.2389L16.5992 21.4454H26.6715V22.9056H15.6532L10.212 11.9541H6.94727Z" fill="#8A675F"/>
<path d="M15.7892 25.0959V26.5562H16.4693V25.826H26.6715V26.5562H27.3517V25.0959H15.7892Z" fill="#8A675F"/>
<path fill-rule="evenodd" clip-rule="evenodd" d="M28.0318 28.7465C28.0318 29.5529 27.4228 30.2067 26.6715 30.2067C25.9203 30.2067 25.3113 29.5529 25.3113 28.7465C25.3113 27.94 25.9203 27.2863 26.6715 27.2863C27.4228 27.2863 28.0318 27.94 28.0318 28.7465ZM27.3517 28.7465C27.3517 29.1497 27.0472 29.4766 26.6715 29.4766C26.2959 29.4766 25.9914 29.1497 25.9914 28.7465C25.9914 28.3432 26.2959 28.0164 26.6715 28.0164C27.0472 28.0164 27.3517 28.3432 27.3517 28.7465Z" fill="#8A675F"/>
<path fill-rule="evenodd" clip-rule="evenodd" d="M17.8296 28.7465C17.8296 29.5529 17.2206 30.2067 16.4693 30.2067C15.7181 30.2067 15.109 29.5529 15.109 28.7465C15.109 27.94 15.7181 27.2863 16.4693 27.2863C17.2206 27.2863 17.8296 27.94 17.8296 28.7465ZM17.1495 28.7465C17.1495 29.1497 16.845 29.4766 16.4693 29.4766C16.0937 29.4766 15.7892 29.1497 15.7892 28.7465C15.7892 28.3432 16.0937 28.0164 16.4693 28.0164C16.845 28.0164 17.1495 28.3432 17.1495 28.7465Z" fill="#8A675F"/>
<path d="M28.0318 14.1444H29.3921V14.8745H28.0318V16.3347H27.3517V14.8745H25.9914V14.1444H27.3517V12.6842H28.0318V14.1444Z" fill="#8A675F"/>
</svg>
