<svg width="40" height="43" viewBox="0 0 40 43" fill="none" xmlns="http://www.w3.org/2000/svg">
<g id="Picto_&#209;&#130;&#208;&#184;&#209;&#128;&#208;&#176;&#208;&#182;">
<g id="Union">
<path fill-rule="evenodd" clip-rule="evenodd" d="M10.7202 0.986328V7.07004H39.6696V0.986328H10.7202ZM38.1459 2.50726H12.2439V5.54911H38.1459V2.50726Z" fill="#8A675F"/>
<path d="M29.004 13.1538H21.3858V11.6328H29.004V13.1538Z" fill="#8A675F"/>
<path d="M13.7675 9.35143V28.363H36.6223V9.35143H38.1459V29.884H35.0986V32.9258H32.0513V35.9677H6.14929V13.1538H7.67293V34.4467H30.5277V32.9258H9.19658V9.35143H10.7202V31.4049H33.575V29.884H12.2439V9.35143H13.7675Z" fill="#8A675F"/>
<path d="M7.67293 2.50726V7.07004H9.19658V2.50726H7.67293Z" fill="#8A675F"/>
<path d="M3.10199 37.4886H29.004V39.0095H3.10199V37.4886Z" fill="#8A675F"/>
<path d="M25.9567 40.5305H0.0546875V42.0514H25.9567V40.5305Z" fill="#8A675F"/>
<path d="M4.62564 19.2375V20.7584H3.10199V19.2375H4.62564Z" fill="#8A675F"/>
<path d="M4.62564 23.8003V22.2793H3.10199V23.8003H4.62564Z" fill="#8A675F"/>
<path d="M4.62564 29.884V28.363H3.10199V29.884H4.62564Z" fill="#8A675F"/>
<path d="M4.62564 34.4467V35.9677H3.10199V34.4467H4.62564Z" fill="#8A675F"/>
<path d="M4.62564 32.9258V31.4049H3.10199V32.9258H4.62564Z" fill="#8A675F"/>
<path d="M4.62564 26.8421V25.3212H3.10199V26.8421H4.62564Z" fill="#8A675F"/>
<path d="M1.57834 23.8003V22.2793H0.0546875V23.8003H1.57834Z" fill="#8A675F"/>
<path d="M1.57834 25.3212V26.8421H0.0546875V25.3212H1.57834Z" fill="#8A675F"/>
<path d="M1.57834 31.4049V32.9258H0.0546875V31.4049H1.57834Z" fill="#8A675F"/>
<path d="M1.57834 39.0095V37.4886H0.0546875V39.0095H1.57834Z" fill="#8A675F"/>
<path d="M1.57834 34.4467V35.9677H0.0546875V34.4467H1.57834Z" fill="#8A675F"/>
<path d="M1.57834 28.363V29.884H0.0546875V28.363H1.57834Z" fill="#8A675F"/>
<path d="M4.62564 16.1956V17.7165H3.10199V16.1956H4.62564Z" fill="#8A675F"/>
<path d="M1.57834 20.7584V19.2375H0.0546875V20.7584H1.57834Z" fill="#8A675F"/>
</g>
</g>
</svg>
