<svg width="29" height="29" viewBox="0 0 29 29" fill="none" xmlns="http://www.w3.org/2000/svg">
<g id="Picto_color">
<path id="Ellipse 37" d="M27.874 14.3125C27.874 21.621 21.9397 27.5474 14.6173 27.5474C7.29498 27.5474 1.36071 21.621 1.36071 14.3125C1.36071 7.00393 7.29498 1.0775 14.6173 1.0775C21.9397 1.0775 27.874 7.00393 27.874 14.3125Z" stroke="#8A675F" stroke-width="1.26047"/>
<path id="Ellipse 36" d="M23.7059 14.3131C23.7059 19.3244 19.6369 23.3885 14.6153 23.3885C9.59383 23.3885 5.52477 19.3244 5.52477 14.3131C5.52477 9.30179 9.59383 5.23766 14.6153 5.23766C19.6369 5.23766 23.7059 9.30179 23.7059 14.3131Z" stroke="#8A675F" stroke-width="1.26047"/>
<g id="Intersect">
<path d="M14.6172 24.0187V4.60742C19.9858 4.60742 24.338 8.95279 24.338 14.3131C24.338 19.6733 19.9858 24.0187 14.6172 24.0187Z" fill="#8A675F"/>
</g>
</g>
</svg>
