<svg width="36" height="47" viewBox="0 0 36 47" fill="none" xmlns="http://www.w3.org/2000/svg">
<g id="Picto_lozhement">
<g id="Union">
<path d="M21.0806 6.40503H19.2438L21.6925 12.5132L24.1412 6.40503H22.3049V0.296875H21.0806V6.40503Z" fill="#8A675F"/>
<path d="M4.5519 21.3455L0.480469 17.8635L1.27726 16.9359L5.77625 20.7837V39.389H30.2632V20.7837L34.7621 16.9359L35.5589 17.8635L31.4875 21.3455V40.6107H4.5519V21.3455Z" fill="#8A675F"/>
<path d="M3.32658 46.7188V44.2756L32.6932 44.2756V46.7188H33.936L33.9168 44.2756V43.0539H2.10297V46.7188H3.32658Z" fill="#8A675F"/>
<path d="M27.8789 22.013C26.743 24.2796 24.4894 25.9511 21.6925 25.9511C20.033 25.9511 18.9187 25.558 17.6716 25.118L17.5345 25.0697C16.2119 24.6039 14.7567 24.1186 12.5099 24.1186C10.5519 24.1186 8.54478 24.7679 7.17965 26.13L7.00035 26.3089V38.1674H29.0386V32.67C29.0386 32.3327 28.7645 32.0592 28.4264 32.0592C28.0883 32.0592 27.8142 32.3327 27.8142 32.67V36.9458H8.22469V31.7108C9.30781 30.7394 10.8869 30.2268 12.5099 30.2268C14.2372 30.2268 15.5305 30.6536 16.9076 31.1117L16.9283 31.1186C18.2999 31.5748 19.7565 32.0592 21.6925 32.0592C24.257 32.0592 26.8386 31.415 29.4059 29.4938L28.6713 28.5165C26.3412 30.2602 24.0254 30.8376 21.6925 30.8376C19.9652 30.8376 18.6719 30.4108 17.2948 29.9527L17.2741 29.9458C15.9025 29.4896 14.4459 29.0052 12.5099 29.0052C11.0061 29.0052 9.47334 29.3881 8.22469 30.1829V29.2676C9.30781 28.2962 10.8869 27.7836 12.5099 27.7836C14.2372 27.7836 15.5305 28.2105 16.9076 28.6685L16.9283 28.6754C18.2999 29.1316 19.7565 29.6161 21.6925 29.6161C24.2724 29.6161 26.8876 28.9612 29.4714 26.3831L28.6057 25.5192C26.2921 27.8277 24.01 28.3944 21.6925 28.3944C19.9652 28.3944 18.6719 27.9676 17.2948 27.5095L17.2741 27.5026C15.9025 27.0465 14.4459 26.562 12.5099 26.562C11.0061 26.562 9.47334 26.9449 8.22469 27.7397V26.8242C9.30781 25.8529 10.8869 25.3403 12.5099 25.3403C14.5483 25.3403 15.8479 25.7712 17.127 26.2217L17.2882 26.2785C18.535 26.7188 19.8202 27.1727 21.6925 27.1727C25.0173 27.1727 27.6611 25.1793 28.9739 22.5594L27.8789 22.013Z" fill="#8A675F"/>
<path fill-rule="evenodd" clip-rule="evenodd" d="M21.6925 23.5079C24.3972 23.5079 26.5899 21.3201 26.5899 18.6213C26.5899 15.9226 24.3972 13.7348 21.6925 13.7348C18.9877 13.7348 16.7951 15.9226 16.7951 18.6213C16.7951 21.3201 18.9877 23.5079 21.6925 23.5079ZM21.6925 22.2862C23.7211 22.2862 25.3655 20.6454 25.3655 18.6213C25.3655 16.5973 23.7211 14.9564 21.6925 14.9564C19.6639 14.9564 18.0195 16.5973 18.0195 18.6213C18.0195 20.6454 19.6639 22.2862 21.6925 22.2862Z" fill="#8A675F"/>
</g>
</g>
</svg>
