<svg width="32" height="48" viewBox="0 0 32 48" fill="none" xmlns="http://www.w3.org/2000/svg">
<g id="Group 681">
<path id="Ellipse 28" d="M23.6304 16.166C23.6304 20.2143 20.3424 23.4982 16.2838 23.4982C12.2253 23.4982 8.93724 20.2143 8.93724 16.166C8.93724 12.1176 12.2253 8.83372 16.2838 8.83372C20.3424 8.83372 23.6304 12.1176 23.6304 16.166Z" stroke="#8A675F" stroke-width="1.36667"/>
<path id="Ellipse 29" d="M21.1577 16.1664C21.1577 18.8526 18.9758 21.0323 16.2818 21.0323C13.5878 21.0323 11.406 18.8526 11.406 16.1664C11.406 13.4802 13.5878 11.3005 16.2818 11.3005C18.9758 11.3005 21.1577 13.4802 21.1577 16.1664Z" stroke="#8A675F" stroke-width="1.36667"/>
<path id="Vector 154" d="M11.957 30.3477V42.0627L16.8985 38.3632L21.84 42.0627V30.3477" stroke="#8A675F" stroke-width="1.36667"/>
<path id="Vector 155" d="M8.25391 31.5801V46.378L10.7246 45.1449M16.9015 42.6785L21.843 46.378" stroke="#8A675F" stroke-width="1.36667" stroke-linecap="round" stroke-linejoin="round"/>
<path id="Star 1" d="M22.2109 4.87073L22.4571 4.83767C24.0336 4.62598 25.499 5.68834 25.788 7.25251C26.0352 8.5902 26.8939 9.73525 28.1088 10.3472L28.2486 10.4176C29.6545 11.1258 30.2133 12.8445 29.4926 14.2441C28.8715 15.4504 28.8715 16.8825 29.4926 18.0888C30.2133 19.4885 29.6545 21.2072 28.2486 21.9154L28.1088 21.9858C26.8939 22.5977 26.0352 23.7428 25.788 25.0805C25.499 26.6447 24.0336 27.707 22.4571 27.4953L22.2109 27.4623C20.8541 27.2801 19.4863 27.7104 18.478 28.6364C17.2363 29.7767 15.3276 29.7767 14.0859 28.6364C13.0777 27.7104 11.7099 27.2801 10.353 27.4623L10.1068 27.4953C8.5303 27.707 7.06496 26.6447 6.77595 25.0805C6.52878 23.7428 5.67008 22.5977 4.45517 21.9858L4.31538 21.9154C2.90942 21.2072 2.35062 19.4885 3.07129 18.0889C3.69242 16.8825 3.69242 15.4504 3.07129 14.2441C2.35062 12.8445 2.90942 11.1258 4.31538 10.4176L4.45517 10.3472C5.67008 9.73525 6.52878 8.5902 6.77595 7.25251C7.06496 5.68834 8.5303 4.62598 10.1068 4.83767L10.353 4.87073C11.7099 5.05293 13.0777 4.62261 14.0859 3.69662C15.3276 2.55625 17.2363 2.55625 18.478 3.69662C19.4863 4.62261 20.8541 5.05293 22.2109 4.87073Z" stroke="#8A675F" stroke-width="1.36667"/>
</g>
</svg>
