<svg width="49" height="34" viewBox="0 0 49 34" fill="none" xmlns="http://www.w3.org/2000/svg">
<g id="Picto_&#208;&#180;&#208;&#190;&#209;&#129;&#209;&#130;&#208;&#176;&#208;&#178;&#208;&#186;&#208;&#176;">
<g id="Union">
<path d="M5.0108 0.884766H0.769531V2.296H5.0108V0.884766Z" fill="#8A675F"/>
<path fill-rule="evenodd" clip-rule="evenodd" d="M6.42456 0.884766V2.296H34.6997V20.642H23.3896V22.0532H34.6997V24.8757H20.1767C19.0123 23.5948 17.5072 22.7589 15.6138 22.7589C13.7466 22.7589 12.2158 23.6375 11.0576 24.8757H6.42456V26.2869H11.6962L11.9076 26.0426C12.9002 24.8957 14.1446 24.1701 15.6138 24.1701C17.123 24.1701 18.3271 24.8583 19.3132 26.0342L19.5251 26.2869H37.1438L37.3553 26.0426C38.3478 24.8957 39.5923 24.1701 41.0614 24.1701C42.5706 24.1701 43.7747 24.8583 44.7608 26.0342L44.9727 26.2869H47.0094L48.8373 24.4624V15.4552L42.8151 7.94093H36.1135V0.884766H6.42456ZM46.4238 24.8757H45.6243C44.4599 23.5948 42.9549 22.7589 41.0614 22.7589C39.1943 22.7589 37.6634 23.6375 36.5052 24.8757H36.1135V9.35216H37.5272V22.0532H38.941V9.35216H42.1356L46.6596 14.9971H40.3547V16.4083H47.4235V23.8778L46.4238 24.8757Z" fill="#8A675F"/>
<path d="M9.25207 6.52969H20.5621V7.94093H9.25207V6.52969Z" fill="#8A675F"/>
<path fill-rule="evenodd" clip-rule="evenodd" d="M15.614 33.3431C17.566 33.3431 19.1484 31.7635 19.1484 29.815C19.1484 27.8665 17.566 26.2869 15.614 26.2869C13.662 26.2869 12.0796 27.8665 12.0796 29.815C12.0796 31.7635 13.662 33.3431 15.614 33.3431ZM15.614 31.9319C16.7852 31.9319 17.7346 30.9841 17.7346 29.815C17.7346 28.6459 16.7852 27.6982 15.614 27.6982C14.4428 27.6982 13.4933 28.6459 13.4933 29.815C13.4933 30.9841 14.4428 31.9319 15.614 31.9319Z" fill="#8A675F"/>
<path fill-rule="evenodd" clip-rule="evenodd" d="M44.596 29.815C44.596 31.7635 43.0136 33.3431 41.0616 33.3431C39.1096 33.3431 37.5272 31.7635 37.5272 29.815C37.5272 27.8665 39.1096 26.2869 41.0616 26.2869C43.0136 26.2869 44.596 27.8665 44.596 29.815ZM43.1822 29.815C43.1822 30.9841 42.2328 31.9319 41.0616 31.9319C39.8904 31.9319 38.941 30.9841 38.941 29.815C38.941 28.6459 39.8904 27.6982 41.0616 27.6982C42.2328 27.6982 43.1822 28.6459 43.1822 29.815Z" fill="#8A675F"/>
<path d="M6.42456 6.52969H7.83832V7.94093H6.42456V6.52969Z" fill="#8A675F"/>
<path d="M12.0796 12.1746H10.6658V13.5859H12.0796V12.1746Z" fill="#8A675F"/>
<path d="M24.8034 13.5859H13.4933V12.1746H24.8034V13.5859Z" fill="#8A675F"/>
<path d="M14.9071 19.2308V17.8195H3.59704V19.2308H14.9071Z" fill="#8A675F"/>
</g>
</g>
</svg>
