<svg width="36" height="53" viewBox="0 0 36 53" fill="none" xmlns="http://www.w3.org/2000/svg">
<g id="Picto_&#208;&#189;&#208;&#176; &#208;&#183;&#208;&#176;&#208;&#186;&#208;&#176;&#208;&#183;">
<g id="Union">
<path d="M10.5865 4.0514L9.38472 4.05139L11.1872 12.5613L12.9899 4.0514L11.7882 4.0514V0.404297L10.5865 0.404297V4.0514Z" fill="#8A675F"/>
<path d="M26.2089 4.0514V0.404297L25.0071 0.404297V4.0514L23.8054 4.05139L25.6079 12.5613L27.4106 4.0514L26.2089 4.0514Z" fill="#8A675F"/>
<path d="M25.0071 49.0322H23.8054L25.6079 40.5223L27.4106 49.0322H26.2089V52.6793H25.0071V49.0322Z" fill="#8A675F"/>
<path d="M15.3933 19.8555H14.1916V18.6398H15.3933V19.8555Z" fill="#8A675F"/>
<path d="M17.7968 19.8555H18.9985V18.6398H17.7968V19.8555Z" fill="#8A675F"/>
<path d="M22.6037 19.8555H21.402V18.6398H22.6037V19.8555Z" fill="#8A675F"/>
<path d="M17.7968 34.4438H18.9985V33.2281H17.7968V34.4438Z" fill="#8A675F"/>
<path d="M21.402 34.4438H22.6037V33.2281H21.402V34.4438Z" fill="#8A675F"/>
<path d="M14.1916 34.4438H15.3933V33.2281H14.1916V34.4438Z" fill="#8A675F"/>
<path d="M10.5864 22.2869V23.5026H11.7882V22.2869H10.5864Z" fill="#8A675F"/>
<path d="M10.5864 25.9339V27.1496H11.7882V25.9339H10.5864Z" fill="#8A675F"/>
<path d="M10.5864 29.581V30.7967H11.7882V29.581H10.5864Z" fill="#8A675F"/>
<path d="M25.0071 22.2869V23.5026H26.2089V22.2869H25.0071Z" fill="#8A675F"/>
<path d="M25.0071 25.9339V27.1496H26.2089V25.9339H25.0071Z" fill="#8A675F"/>
<path d="M25.0071 29.581V30.7967H26.2089V29.581H25.0071Z" fill="#8A675F"/>
<path fill-rule="evenodd" clip-rule="evenodd" d="M25.6079 40.5223H11.1873H10.5864V34.4438H4.57783V18.6398H10.5864V12.5613L11.1872 12.5613H25.6079L26.2089 12.5613V18.6398H32.2175V34.4438H26.2089V40.5223H25.6079ZM11.7882 13.777H25.0071V19.8555H31.0158V33.2281H25.0071V39.3066H11.7882V33.2281H5.77955V19.8555H11.7882V13.777Z" fill="#8A675F"/>
<path d="M11.1873 40.5223L12.9899 49.0322H11.7882V52.6793H10.5865V49.0322H9.38472L11.1873 40.5223Z" fill="#8A675F"/>
<path d="M33.4192 18.6398H35.8227V34.4438H33.4192V33.2281H34.6209V19.8555H33.4192V18.6398Z" fill="#8A675F"/>
<path d="M0.972656 18.6398V34.4438H3.3761V33.2281H2.17438V19.8555H3.3761V18.6398H0.972656Z" fill="#8A675F"/>
</g>
</g>
</svg>
