<svg width="49" height="41" viewBox="0 0 49 41" fill="none" xmlns="http://www.w3.org/2000/svg">
<path d="M32.6212 2.07031L21.1911 2.07031L21.1911 4.60526H22.4611V3.33779L31.3512 3.33779V4.60526L32.6212 4.60526V2.07031Z" fill="#8A675F"/>
<path d="M25.0012 3.33794V7.14036H26.2712V3.33794L25.0012 3.33794Z" fill="#8A675F"/>
<path d="M27.5412 7.14036V3.33794L28.8112 3.33794V7.14036H27.5412Z" fill="#8A675F"/>
<path d="M12.3005 13.4777H16.1105L16.1105 14.7451L12.3005 14.7451L12.3005 13.4777Z" fill="#8A675F"/>
<path d="M5.95111 18.5475L7.22111 18.5475L7.22111 19.8149H5.95111L5.95111 18.5475Z" fill="#8A675F"/>
<path d="M8.49111 18.5475L13.5711 18.5475L13.5711 19.8149L8.49111 19.8149L8.49111 18.5475Z" fill="#8A675F"/>
<path d="M12.3011 23.6174L12.3011 24.8848H0.871095L0.871094 23.6174H12.3011Z" fill="#8A675F"/>
<path d="M4.6811 28.6872H9.76112L9.76111 29.9547H4.6811L4.6811 28.6872Z" fill="#8A675F"/>
<path d="M11.0311 29.9547V28.6872H13.5711L13.5711 29.9547H11.0311Z" fill="#8A675F"/>
<path d="M11.0249 33.7571L16.1049 33.7571V35.0246L11.0249 35.0246V33.7571Z" fill="#8A675F"/>
<path fill-rule="evenodd" clip-rule="evenodd" d="M27.0296 26.763C27.9261 25.9329 34.0781 17.6423 34.0781 17.6423L33.2143 16.7132C33.2143 16.7132 24.4708 22.2164 23.5743 23.0465C22.5269 24.0164 22.4513 25.6346 23.4055 26.6609C24.3597 27.6872 25.9822 27.7329 27.0296 26.763ZM26.1658 25.8339C25.6164 26.3426 24.7987 26.296 24.3365 25.7988C23.8743 25.3017 23.8887 24.4845 24.438 23.9757L24.4487 23.9664C24.4566 23.9596 24.4676 23.9505 24.482 23.9388C24.5112 23.9151 24.5497 23.8849 24.5986 23.8478C24.6968 23.7733 24.8245 23.6804 24.9805 23.57C25.2923 23.3493 25.697 23.0732 26.1658 22.7596C27.1024 22.1331 28.2722 21.372 29.419 20.6336C29.9714 20.2779 30.5175 19.9282 31.0282 19.6021C30.6643 20.086 30.274 20.6034 29.8773 21.1266C29.0538 22.2127 28.206 23.32 27.51 24.2053C27.1616 24.6485 26.8555 25.0306 26.6117 25.3244C26.4896 25.4714 26.3873 25.5915 26.3055 25.6837C26.2648 25.7296 26.2317 25.7657 26.2059 25.793L26.19 25.8096L26.1758 25.824C26.1683 25.8316 26.1658 25.8339 26.1658 25.8339Z" fill="#8A675F"/>
<path fill-rule="evenodd" clip-rule="evenodd" d="M26.4292 9.67568C24.2937 9.67568 22.2663 10.1265 20.437 10.9366L19.9219 9.77802C21.9104 8.89741 24.1131 8.4082 26.4292 8.4082C35.2482 8.4082 42.4045 15.4976 42.4045 24.2516C42.4045 33.0056 35.2482 40.095 26.4292 40.095C24.1131 40.095 21.9104 39.6058 19.9219 38.7252L20.437 37.5667C22.2663 38.3768 24.2937 38.8276 26.4292 38.8276C34.5546 38.8276 41.1345 32.2978 41.1345 24.2516C41.1345 16.2055 34.5546 9.67568 26.4292 9.67568Z" fill="#8A675F"/>
<path fill-rule="evenodd" clip-rule="evenodd" d="M27.5473 9.67578V13.4782H26.2773V9.67578H27.5473Z" fill="#8A675F"/>
<path fill-rule="evenodd" clip-rule="evenodd" d="M41.5156 24.8847L36.4356 24.8847L36.4356 23.6172L41.5156 23.6172L41.5156 24.8847Z" fill="#8A675F"/>
<path fill-rule="evenodd" clip-rule="evenodd" d="M27.5473 35.0254V39.4615H26.2773V35.0254H27.5473Z" fill="#8A675F"/>
<path d="M44.6885 12.2107C44.6885 13.2595 43.8362 14.1119 42.7822 14.1119C41.7282 14.1119 40.8759 13.2595 40.8759 12.2107C40.8759 11.1619 41.7282 10.3095 42.7822 10.3095C43.8362 10.3095 44.6885 11.1619 44.6885 12.2107Z" stroke="#8A675F" stroke-width="1.26747"/>
<path d="M41.5166 13.4766L38.9766 16.0115" stroke="#8A675F" stroke-width="1.26747"/>
</svg>
