<svg width="13" height="11" viewBox="0 0 13 11" fill="none" xmlns="http://www.w3.org/2000/svg">
<line x1="3.39799" y1="1.99792e-08" x2="3.39799" y2="7.09806" stroke="#8A675F" stroke-width="0.914144"/>
<path d="M5.15219 8.57612C5.15219 9.41702 4.36481 10.1893 3.27485 10.1893C2.18488 10.1893 1.3975 9.41702 1.3975 8.57612C1.3975 7.73523 2.18488 6.96293 3.27485 6.96293C4.36481 6.96293 5.15219 7.73523 5.15219 8.57612Z" stroke="#8A675F" stroke-width="0.914144"/>
<line x1="9.82125" y1="10.6475" x2="9.82125" y2="3.5494" stroke="#8A675F" stroke-width="0.914144"/>
<path d="M8.06705 2.07134C8.06705 1.23045 8.85443 0.458147 9.94439 0.458147C11.0344 0.458147 11.8217 1.23045 11.8217 2.07134C11.8217 2.91223 11.0344 3.68453 9.94439 3.68453C8.85442 3.68453 8.06705 2.91223 8.06705 2.07134Z" stroke="#8A675F" stroke-width="0.914144"/>
</svg>
