<svg width="32" height="41" viewBox="0 0 32 41" fill="none" xmlns="http://www.w3.org/2000/svg">
<g id="Group 684">
<rect id="Rectangle 86" x="1.35563" y="1.38981" width="29.3786" height="29.538" rx="3.39517" fill="#ECDED7" stroke="#ECDED7" stroke-width="1.69759"/>
<path id="Vector 41" d="M12.3901 39.8827L27.9282 31.0977H12.3901V39.8827Z" fill="#ECDED7" stroke="#ECDED7" stroke-width="0.796826"/>
<path id="?" d="M16.6327 18.5985H15.0451C15.0508 18.0494 15.0992 17.6004 15.1902 17.2515C15.287 16.8969 15.4435 16.5738 15.6597 16.2821C15.8759 15.9904 16.1633 15.6587 16.5218 15.2869C16.7835 15.0181 17.0225 14.7665 17.2387 14.532C17.4606 14.2917 17.6399 14.0344 17.7765 13.7598C17.913 13.4796 17.9813 13.145 17.9813 12.7561C17.9813 12.3614 17.9102 12.0211 17.7679 11.7352C17.6314 11.4492 17.4265 11.229 17.1534 11.0746C16.8859 10.9202 16.5531 10.8429 16.1547 10.8429C15.8247 10.8429 15.5117 10.903 15.2159 11.0231C14.92 11.1432 14.681 11.3291 14.4989 11.5807C14.3168 11.8267 14.2229 12.1498 14.2172 12.5502H12.6382C12.6496 11.9039 12.8089 11.3491 13.1162 10.8858C13.4291 10.4226 13.8502 10.068 14.3794 9.82203C14.9086 9.57609 15.5004 9.45312 16.1547 9.45312C16.8774 9.45312 17.4919 9.58467 17.9984 9.84776C18.5105 10.1109 18.9003 10.4883 19.1677 10.9802C19.4352 11.4664 19.5689 12.044 19.5689 12.7132C19.5689 13.2279 19.4636 13.7026 19.2531 14.1373C19.0482 14.5663 18.7836 14.9695 18.4593 15.347C18.1349 15.7245 17.7907 16.0848 17.4265 16.4279C17.1135 16.7196 16.903 17.0485 16.7949 17.4145C16.6868 17.7806 16.6327 18.1752 16.6327 18.5985ZM14.9769 21.318C14.9769 21.0607 15.0565 20.8433 15.2159 20.666C15.3752 20.4887 15.6056 20.4001 15.9072 20.4001C16.2145 20.4001 16.4478 20.4887 16.6071 20.666C16.7664 20.8433 16.8461 21.0607 16.8461 21.318C16.8461 21.564 16.7664 21.7756 16.6071 21.9529C16.4478 22.1302 16.2145 22.2188 15.9072 22.2188C15.6056 22.2188 15.3752 22.1302 15.2159 21.9529C15.0565 21.7756 14.9769 21.564 14.9769 21.318Z" fill="#B1A19D"/>
</g>
</svg>
