<svg width="34" height="32" viewBox="0 0 34 32" fill="none" xmlns="http://www.w3.org/2000/svg">
<rect width="34" height="32" fill="#ECECEC"/>
<rect width="11628" height="15000" transform="translate(-3301 -7145)" fill="#F2F2F2"/>
<g filter="url(#filter0_f_98_58)">
<g filter="url(#filter1_d_98_58)">
<path d="M-51 -1182C-51 -1204.09 -33.0914 -1222 -11 -1222H1629C1651.09 -1222 1669 -1204.09 1669 -1182V476C1669 498.091 1651.09 516 1629 516H-11C-33.0914 516 -51 498.091 -51 476V-1182Z" fill="white"/>
</g>
</g>
<rect opacity="0.5" x="-151" y="-1324" width="1920" height="1899" fill="#FAFAFC"/>
<g filter="url(#filter2_d_98_58)">
<rect x="-50" y="-347" width="1720" height="977" rx="40" fill="white"/>
</g>
<path d="M34.3184 21V33" stroke="#8A675F" stroke-width="2"/>
<g opacity="0.3">
<path d="M7.40114 8.40039L1.04004 8.40039L4.22059 0.000392791L7.40114 8.40039Z" fill="#B1A19D"/>
<path d="M4.21973 7.00118L4.21973 27" stroke="#B1A19D" stroke-width="1.72025" stroke-linejoin="round" stroke-dasharray="0.17 3.44"/>
<path d="M16.8057 16.8979L12.5889 13.1855L21.7254 8.85452L16.8057 16.8979Z" fill="#B1A19D"/>
<path d="M15.599 14.0011L4.15984 27.0019" stroke="#B1A19D" stroke-width="1.72025" stroke-dasharray="0.17 3.44"/>
</g>
<path d="M15.5996 32L15.5996 22L32.2388 27L15.5996 32Z" fill="#8A675F"/>
<path d="M28.0786 27L0 27" stroke="#8A675F" stroke-width="1.8"/>
<defs>
<filter id="filter0_f_98_58" x="-71" y="-1242" width="1761" height="1800" filterUnits="userSpaceOnUse" color-interpolation-filters="sRGB">
<feFlood flood-opacity="0" result="BackgroundImageFix"/>
<feBlend mode="normal" in="SourceGraphic" in2="BackgroundImageFix" result="shape"/>
<feGaussianBlur stdDeviation="10" result="effect1_foregroundBlur_98_58"/>
</filter>
<filter id="filter1_d_98_58" x="-96" y="-1222" width="1800" height="1823" filterUnits="userSpaceOnUse" color-interpolation-filters="sRGB">
<feFlood flood-opacity="0" result="BackgroundImageFix"/>
<feColorMatrix in="SourceAlpha" type="matrix" values="0 0 0 0 0 0 0 0 0 0 0 0 0 0 0 0 0 0 127 0" result="hardAlpha"/>
<feOffset dx="-5" dy="45"/>
<feGaussianBlur stdDeviation="20"/>
<feComposite in2="hardAlpha" operator="out"/>
<feColorMatrix type="matrix" values="0 0 0 0 0.858333 0 0 0 0 0.720642 0 0 0 0 0.661632 0 0 0 0.08 0"/>
<feBlend mode="normal" in2="BackgroundImageFix" result="effect1_dropShadow_98_58"/>
<feBlend mode="normal" in="SourceGraphic" in2="effect1_dropShadow_98_58" result="shape"/>
</filter>
<filter id="filter2_d_98_58" x="-95" y="-347" width="1800" height="1062" filterUnits="userSpaceOnUse" color-interpolation-filters="sRGB">
<feFlood flood-opacity="0" result="BackgroundImageFix"/>
<feColorMatrix in="SourceAlpha" type="matrix" values="0 0 0 0 0 0 0 0 0 0 0 0 0 0 0 0 0 0 127 0" result="hardAlpha"/>
<feOffset dx="-5" dy="45"/>
<feGaussianBlur stdDeviation="20"/>
<feComposite in2="hardAlpha" operator="out"/>
<feColorMatrix type="matrix" values="0 0 0 0 0.858333 0 0 0 0 0.720642 0 0 0 0 0.661632 0 0 0 0.08 0"/>
<feBlend mode="normal" in2="BackgroundImageFix" result="effect1_dropShadow_98_58"/>
<feBlend mode="normal" in="SourceGraphic" in2="effect1_dropShadow_98_58" result="shape"/>
</filter>
</defs>
</svg>
