<svg width="17" height="18" viewBox="0 0 17 18" fill="none" xmlns="http://www.w3.org/2000/svg">
<g id="mini logo">
<path id="Vector" d="M16.1339 6.10859L10.7378 0.845888C10.6508 0.761006 10.4767 0.761006 10.3462 0.845888L8.47496 2.67086L6.60373 0.845888C6.5167 0.761006 6.34263 0.761006 6.21208 0.845888L0.859495 6.10859C0.815978 6.15103 0.772461 6.23591 0.772461 6.27835C0.772461 6.3208 0.815978 6.40568 0.859495 6.44812L2.73072 8.27309L0.859495 10.1405C0.772461 10.2254 0.772461 10.3951 0.859495 10.5225L6.2556 15.7852C6.29911 15.8276 6.38615 15.8701 6.42967 15.8701C6.47318 15.8701 6.56022 15.8276 6.60373 15.7852L8.21386 14.2148V16.9624C8.21386 17.0897 8.34441 17.217 8.47496 17.217C8.60551 17.217 8.73606 17.0897 8.73606 16.9624V14.2148L10.3462 15.7852C10.3897 15.8276 10.4767 15.8701 10.5203 15.8701C10.5638 15.8701 10.6508 15.8276 10.6943 15.7852L16.0904 10.5225C16.1775 10.4376 16.1775 10.2678 16.0904 10.1405L14.2192 8.31553L16.0904 6.49056C16.2645 6.36324 16.2645 6.19347 16.1339 6.10859ZM8.77958 3.647L13.2618 8.01844H10.6943L8.77958 6.19347V3.647ZM1.42522 6.27835L6.42967 1.39762L8.12683 3.05283L3.12238 7.93356L1.42522 6.27835ZM8.25738 3.647V6.15103L6.34263 8.01844H3.77513L8.25738 3.647ZM6.42967 15.191L1.42522 10.3103L3.12238 8.65506L8.12683 13.5358L6.42967 15.191ZM3.73161 8.57018H6.29911L8.21386 10.4376V12.8992L3.73161 8.57018ZM8.51848 9.92829L6.82132 8.27309L8.51848 6.61788L10.2156 8.27309L8.51848 9.92829ZM8.77958 10.3951L10.6943 8.52773H13.2618L8.77958 12.9416V10.3951ZM15.5682 10.3103L10.5638 15.191L8.86661 13.5358L13.8711 8.65506L15.5682 10.3103ZM13.9146 7.93356L8.86661 3.05283L10.5638 1.39762L15.5682 6.27835L13.9146 7.93356Z" fill="#B1A19D" stroke="#B1A19D" stroke-width="0.3"/>
</g>
</svg>
