<svg width="30" height="44" viewBox="0 0 30 44" fill="none" xmlns="http://www.w3.org/2000/svg">
<g id="Picto_&#208;&#189;&#208;&#176; &#208;&#183;&#208;&#176;&#208;&#186;&#208;&#176;&#208;&#183;">
<g id="Union">
<path d="M8.78587 3.59439L7.77784 3.59439L9.28978 10.6506L10.8019 3.59439L9.79389 3.59439V0.570313L8.78587 0.570312V3.59439Z" fill="#8A675F"/>
<path d="M21.8902 3.59439V0.570313L20.8822 0.570312V3.59439L19.8741 3.59439L21.3861 10.6506L22.8982 3.59439L21.8902 3.59439Z" fill="#8A675F"/>
<path d="M20.8822 40.8913H19.8741L21.3861 33.8351L22.8982 40.8913H21.8902V43.9153H20.8822V40.8913Z" fill="#8A675F"/>
<path d="M12.818 16.6987H11.8099V15.6907H12.818V16.6987Z" fill="#8A675F"/>
<path d="M14.834 16.6987H15.842V15.6907H14.834V16.6987Z" fill="#8A675F"/>
<path d="M18.8661 16.6987H17.8581V15.6907H18.8661V16.6987Z" fill="#8A675F"/>
<path d="M14.834 28.795H15.842V27.787H14.834V28.795Z" fill="#8A675F"/>
<path d="M17.8581 28.795H18.8661V27.787H17.8581V28.795Z" fill="#8A675F"/>
<path d="M11.8099 28.795H12.818V27.787H11.8099V28.795Z" fill="#8A675F"/>
<path d="M8.78587 18.7147V19.7228H9.79389V18.7147H8.78587Z" fill="#8A675F"/>
<path d="M8.78587 21.7388V22.7468H9.79389V21.7388H8.78587Z" fill="#8A675F"/>
<path d="M8.78587 24.7629V25.7709H9.79389V24.7629H8.78587Z" fill="#8A675F"/>
<path d="M20.8822 18.7147V19.7228H21.8902V18.7147H20.8822Z" fill="#8A675F"/>
<path d="M20.8822 21.7388V22.7468H21.8902V21.7388H20.8822Z" fill="#8A675F"/>
<path d="M20.8822 24.7629V25.7709H21.8902V24.7629H20.8822Z" fill="#8A675F"/>
<path fill-rule="evenodd" clip-rule="evenodd" d="M21.3861 33.8351H9.28988H8.78587V28.795H3.74575V15.6907H8.78587V10.6506L9.28978 10.6506H21.3861L21.8902 10.6506V15.6907H26.9303V28.795H21.8902V33.8351H21.3861ZM9.79389 11.6586H20.8822V16.6987H25.9223V27.787H20.8822V32.8271H9.79389V27.787H4.75377V16.6987H9.79389V11.6586Z" fill="#8A675F"/>
<path d="M9.28988 33.8351L10.8019 40.8913H9.79389V43.9153H8.78587V40.8913H7.77784L9.28988 33.8351Z" fill="#8A675F"/>
<path d="M27.9383 15.6907H29.9544V28.795H27.9383V27.787H28.9463V16.6987H27.9383V15.6907Z" fill="#8A675F"/>
<path d="M0.72168 15.6907V28.795H2.73773V27.787H1.7297V16.6987H2.73773V15.6907H0.72168Z" fill="#8A675F"/>
</g>
</g>
</svg>
