<svg width="28" height="31" viewBox="0 0 28 31" fill="none" xmlns="http://www.w3.org/2000/svg">
<g id="Picto_&#208;&#191;&#208;&#181;&#209;&#135;&#208;&#176;&#209;&#130;&#209;&#140;">
<path id="Union" fill-rule="evenodd" clip-rule="evenodd" d="M7.78566 0.121094H20.89V3.14517H19.8819V1.12912H8.79368V3.14517H7.78566V0.121094ZM3.24955 5.16121C2.41448 5.16121 1.73751 5.83817 1.73751 6.67325V7.17726V7.68127V12.7214C1.73751 13.5565 2.41448 14.2334 3.24955 14.2334H4.76158V15.2414H3.24955C1.85776 15.2414 0.729492 14.1132 0.729492 12.7214V7.68127V7.17726V6.67325C0.729492 5.28146 1.85776 4.15319 3.24955 4.15319H4.25757H23.914H24.418H25.4261C26.8179 4.15319 27.9461 5.28146 27.9461 6.67325V12.7214C27.9461 14.1132 26.8179 15.2414 25.4261 15.2414H23.914V14.2334H25.4261C26.2611 14.2334 26.9381 13.5565 26.9381 12.7214V6.67325C26.9381 5.83817 26.2611 5.16121 25.4261 5.16121H24.418H23.914H4.25757H3.24955ZM22.906 28.0832V27.032C22.8684 27.0001 22.8319 26.9662 22.7967 26.9303C22.7753 26.9104 22.7554 26.889 22.7369 26.866L21.8739 26.0191C21.4843 25.585 20.9505 25.3351 20.3899 25.3241C19.829 25.3131 19.2871 25.5421 18.8833 25.9607L18.8289 26.0191L17.9658 26.866C17.6757 27.195 17.276 27.3867 16.8547 27.3987C16.4333 27.4108 16.0248 27.2423 15.7189 26.9303L15.6591 26.866L14.7906 26.0191C14.5989 25.8042 14.3698 25.6319 14.1163 25.5123C13.8628 25.3927 13.5899 25.3281 13.3131 25.3221C13.1499 25.3187 12.9872 25.3356 12.8282 25.3723C12.7177 25.3978 12.6092 25.433 12.5034 25.4776C12.2457 25.5861 12.0102 25.7484 11.8109 25.9548L11.7402 26.0191L10.888 26.866C10.5978 27.195 10.1982 27.3867 9.77685 27.3987C9.35553 27.4108 8.947 27.2423 8.64085 26.9303L8.5813 26.866L7.71281 26.0191C7.61978 25.9169 7.51839 25.8248 7.41011 25.7437C7.22922 25.608 7.02915 25.5032 6.81676 25.4336C6.47714 25.3223 6.1171 25.3048 5.76961 25.3824V26.3189H5.83483C6.10676 26.2543 6.39003 26.2678 6.65581 26.3579C6.81135 26.4107 6.95778 26.4888 7.09018 26.5887C7.18394 26.6596 7.27082 26.7413 7.34908 26.8329L8.21215 27.6507C8.60221 28.0822 9.13527 28.33 9.69465 28.3398C10.254 28.3497 10.7945 28.1208 11.1973 27.7033L11.2463 27.6507L12.1148 26.7978C12.4049 26.4689 12.8046 26.2773 13.2259 26.2653C13.6473 26.2532 14.0558 26.4217 14.3619 26.7336C14.375 26.7459 14.3875 26.7588 14.3996 26.7723C14.4072 26.7806 14.4143 26.7891 14.4215 26.7978L15.29 27.6507C15.6965 28.0811 16.2397 28.3295 16.8099 28.3458C17.3798 28.3295 17.923 28.0811 18.3295 27.6507L19.198 26.7978C19.4882 26.4689 19.8878 26.2773 20.3092 26.2653C20.7305 26.2532 21.1393 26.4217 21.4452 26.7336C21.4663 26.7535 21.4863 26.775 21.505 26.7978L22.3678 27.6507C22.5263 27.8264 22.7081 27.9718 22.906 28.0832ZM6.77763 12.2174H21.898V23.3056H6.77763V12.2174ZM5.76961 24.3137V11.2094H22.906V24.3137H5.76961ZM5.76961 8.18528H3.75356V7.17726H5.76961V8.18528ZM6.77763 8.18528H7.78566V7.17726H6.77763V8.18528ZM22.906 30.3618H5.76961V29.3538H22.906V30.3618ZM14.8418 15.2414H13.8338V14.2334H12.8258V15.2414H11.8177V16.2495H10.8097V17.2575H11.8177V18.2655H10.8097V19.2735H11.8177V20.2816H12.8258V21.2896H13.8338V20.2816H14.8418V21.2896H15.8498L15.8498 20.2816H16.8579V19.2735H17.8659V18.2655H16.8579V17.2575H17.8659V16.2495H16.8579V15.2414H15.8498L15.8498 14.2334H14.8418V15.2414ZM14.8418 16.2495H13.8338V15.2414H12.8258L12.8258 16.2495H11.8177V17.2575H12.8258L12.8258 18.2655H11.8177V19.2735H12.8258V20.2816H13.8338V19.2735H14.8418V20.2816H15.8498L15.8498 19.2735H16.8579V18.2655H15.8498L15.8498 17.2575H16.8579V16.2495H15.8498V15.2414H14.8418V16.2495ZM14.8418 17.2575H13.8338V16.2495H12.8258L12.8258 17.2575H13.8338V18.2655H12.8258L12.8258 19.2735H13.8338V18.2655H14.8418V19.2735H15.8498L15.8498 18.2655H14.8418V17.2575ZM14.8418 17.2575H15.8498L15.8498 16.2495H14.8418V17.2575Z" fill="#8A675F"/>
</g>
</svg>
