<svg width="32" height="32" viewBox="0 0 32 32" fill="none" xmlns="http://www.w3.org/2000/svg">
<path d="M17.7246 7.2886C17.7246 10.793 20.5655 13.6338 24.0698 13.6338C27.5742 13.6338 30.4151 10.793 30.4151 7.2886C30.4151 3.78422 27.5742 0.943359 24.0698 0.943359" stroke="#8A675F" stroke-width="1.36667"/>
<path d="M24.0713 3.38477V7.77762L21.6309 10.2181" stroke="#8A675F" stroke-width="1.36667"/>
<path opacity="0.3" d="M18.7012 6.80087C18.7012 4.1052 20.8864 1.91992 23.5821 1.91992" stroke="#8A675F" stroke-width="1.36667"/>
<path d="M15.8305 10.2475C15.6126 9.82699 15.4049 9.37974 15.2094 8.9043H7.00845L0.0625123 16.0647L0.0625 31.9026H15.8766L23.0262 24.6269V16.3116C22.617 16.2292 22.1606 16.0972 21.6754 15.9036V24.1818L15.317 30.5497H1.41332V16.6251L7.77171 10.2571H14.7236L15.8305 10.2475Z" fill="#8A675F"/>
<path d="M17.8208 13.1609L16.8437 14.1175L17.7269 15.0961L18.776 14.1175C18.5504 13.9094 18.0423 13.4013 17.8208 13.1609Z" fill="#8A675F"/>
<path d="M5.46574 17.0213H4.11493V15.6685H5.46574V17.0213Z" fill="#8A675F"/>
<path d="M14.9214 19.727V18.3742H16.2722V19.727H14.9214Z" fill="#8A675F"/>
<path d="M14.9214 22.4327V21.0799H16.2722V22.4327H14.9214Z" fill="#8A675F"/>
<path d="M14.9214 25.1384V23.7855H16.2722V25.1384H14.9214Z" fill="#8A675F"/>
<path d="M14.9214 26.4912V27.8441H16.2722V26.4912H14.9214Z" fill="#8A675F"/>
<path d="M8.16735 17.0213H6.81655V15.6685H8.16735V17.0213Z" fill="#8A675F"/>
<path d="M10.869 17.0213H9.51816V15.6685H10.869V17.0213Z" fill="#8A675F"/>
<path d="M13.5706 17.0213H12.2198V15.6685H13.5706V17.0213Z" fill="#8A675F"/>
<path d="M16.2722 17.0213H14.9214V15.6685H16.2722V17.0213Z" fill="#8A675F"/>
</svg>
