<svg width="23" height="22" viewBox="0 0 23 22" fill="none" xmlns="http://www.w3.org/2000/svg">
<g id="chosen">
<path id="Union" d="M11.2619 2.88039L11.7771 3.34577L12.2924 2.88039C13.7916 1.52638 15.8496 1.06745 17.7024 1.81153C20.4165 2.90151 21.8 6.24171 20.636 9.33542C19.7741 11.6259 17.6158 14.1061 15.5858 16.0634C14.5841 17.0293 13.6381 17.8448 12.9426 18.4189C12.6036 18.6987 12.3248 18.9205 12.1289 19.0737C12.1245 19.0705 12.1199 19.0673 12.1154 19.0641C11.899 18.9104 11.5864 18.6843 11.2047 18.3973C10.4408 17.8229 9.40409 17.007 8.31185 16.041C6.09331 14.0788 3.77244 11.6054 2.9183 9.33542C1.75424 6.24171 3.13782 2.90151 5.85192 1.81153C7.70473 1.06745 9.76273 1.52638 11.2619 2.88039Z" stroke="#8A675F" stroke-width="1.5375"/>
</g>
</svg>
