<svg width="41" height="41" viewBox="0 0 41 41" fill="none" xmlns="http://www.w3.org/2000/svg">
<g id="Picto_&#208;&#179;&#208;&#190;&#209;&#130;&#208;&#190;&#208;&#178;&#209;&#139;&#208;&#181;">
<g id="Union">
<path d="M15.6135 8.30071H11.8168V6.98525H15.6135V8.30071Z" fill="#8A675F"/>
<path d="M11.8168 10.9316H15.6135V9.61617H11.8168V10.9316Z" fill="#8A675F"/>
<path d="M8.02023 16.1935H6.75469V14.878H8.02023V16.1935Z" fill="#8A675F"/>
<path d="M10.5513 16.1935H9.28576V14.878H10.5513V16.1935Z" fill="#8A675F"/>
<path fill-rule="evenodd" clip-rule="evenodd" d="M5.11848 4.35433L1.5072 0.600586L0.612334 1.53076L4.22361 5.2845V18.8244H18.1445V5.2845L21.7558 1.53076L20.8609 0.600586L17.2497 4.35433H5.11848ZM5.48915 5.66979H16.879V17.5089H5.48915V5.66979Z" fill="#8A675F"/>
<path d="M20.6756 6.98525V12.2471H35.8621V6.98525H34.5965V10.9316H21.9411V6.98525H20.6756Z" fill="#8A675F"/>
<path d="M4.22361 28.0326H5.48915V31.979H16.879V28.0326H18.1445V33.2945H4.22361V28.0326Z" fill="#8A675F"/>
<path d="M38.3734 37.2408L1.67276 37.2409V39.8718H0.407227C0.407227 39.8718 0.407227 38.0303 0.407227 36.8503C0.407227 36.7459 0.407227 36.5831 0.407227 36.5831V35.9254H39.6389V36.5831V37.2408L39.6587 39.8718H38.3734V37.2408Z" fill="#8A675F"/>
<path fill-rule="evenodd" clip-rule="evenodd" d="M2.95808 21.4553H19.4101V26.7172H2.95808V21.4553ZM4.22361 22.7708H18.1445V25.4017H4.22361V22.7708Z" fill="#8A675F"/>
<path d="M31.9389 22.5077L30.9265 21.7184L27.5676 26.3736L25.5524 24.2789L24.6575 25.2091L27.7045 28.3762L31.9389 22.5077Z" fill="#8A675F"/>
<path fill-rule="evenodd" clip-rule="evenodd" d="M20.6756 14.878V33.2945H35.8621V14.878H20.6756ZM34.5965 16.1935H21.9411V31.979H34.5965V16.1935Z" fill="#8A675F"/>
</g>
</g>
</svg>
