<svg width="40" height="28" viewBox="0 0 40 28" fill="none" xmlns="http://www.w3.org/2000/svg">
<g id="Picto_&#208;&#180;&#208;&#190;&#209;&#129;&#209;&#130;&#208;&#176;&#208;&#178;&#208;&#186;&#208;&#176;">
<g id="Union">
<path d="M3.72292 0.598633H0.257812V1.7493H3.72292V0.598633Z" fill="#8A675F"/>
<path fill-rule="evenodd" clip-rule="evenodd" d="M4.87796 0.598633V1.7493H27.9787V16.708H18.7384V17.8587H27.9787V20.16H16.1134C15.1621 19.1156 13.9325 18.434 12.3856 18.434C10.8601 18.434 9.60936 19.1504 8.66312 20.16H4.87796V21.3107H9.18485L9.35761 21.1114C10.1685 20.1763 11.1852 19.5847 12.3856 19.5847C13.6186 19.5847 14.6023 20.1458 15.408 21.1046L15.5811 21.3107H29.9755L30.1483 21.1114C30.9592 20.1763 31.9759 19.5847 33.1762 19.5847C34.4092 19.5847 35.393 20.1458 36.1986 21.1046L36.3717 21.3107H38.0357L39.529 19.823V12.4788L34.6089 6.35198H29.1337V0.598633H4.87796ZM37.5573 20.16H36.9041C35.9527 19.1156 34.7231 18.434 33.1762 18.434C31.6507 18.434 30.4 19.1504 29.4538 20.16H29.1337V7.50265H30.2887V17.8587H31.4438V7.50265H34.0538L37.7499 12.1053H32.5988V13.256H38.374V19.3464L37.5573 20.16Z" fill="#8A675F"/>
<path d="M7.18803 5.20131H16.4283V6.35198H7.18803V5.20131Z" fill="#8A675F"/>
<path fill-rule="evenodd" clip-rule="evenodd" d="M12.3857 27.064C13.9805 27.064 15.2733 25.7761 15.2733 24.1873C15.2733 22.5986 13.9805 21.3107 12.3857 21.3107C10.7909 21.3107 9.4981 22.5986 9.4981 24.1873C9.4981 25.7761 10.7909 27.064 12.3857 27.064ZM12.3857 25.9133C13.3426 25.9133 14.1182 25.1406 14.1182 24.1873C14.1182 23.2341 13.3426 22.4613 12.3857 22.4613C11.4288 22.4613 10.6531 23.2341 10.6531 24.1873C10.6531 25.1406 11.4288 25.9133 12.3857 25.9133Z" fill="#8A675F"/>
<path fill-rule="evenodd" clip-rule="evenodd" d="M36.0639 24.1873C36.0639 25.7761 34.7711 27.064 33.1763 27.064C31.5816 27.064 30.2887 25.7761 30.2887 24.1873C30.2887 22.5986 31.5816 21.3107 33.1763 21.3107C34.7711 21.3107 36.0639 22.5986 36.0639 24.1873ZM34.9089 24.1873C34.9089 25.1406 34.1332 25.9133 33.1763 25.9133C32.2195 25.9133 31.4438 25.1406 31.4438 24.1873C31.4438 23.2341 32.2195 22.4613 33.1763 22.4613C34.1332 22.4613 34.9089 23.2341 34.9089 24.1873Z" fill="#8A675F"/>
<path d="M4.87796 5.20131H6.03299V6.35198H4.87796V5.20131Z" fill="#8A675F"/>
<path d="M9.4981 9.80398H8.34306V10.9547H9.4981V9.80398Z" fill="#8A675F"/>
<path d="M19.8934 10.9547H10.6531V9.80398H19.8934V10.9547Z" fill="#8A675F"/>
<path d="M11.8082 15.5573V14.4067H2.56788V15.5573H11.8082Z" fill="#8A675F"/>
</g>
</g>
</svg>
