<svg width="25" height="28" viewBox="0 0 25 28" fill="none" xmlns="http://www.w3.org/2000/svg">
<path id="Vector" d="M24.8495 8.97482L16.1205 0.107269C15.9797 -0.0357563 15.6981 -0.0357563 15.4869 0.107269L12.4599 3.18231L9.43294 0.107269C9.29215 -0.0357563 9.01057 -0.0357563 8.79938 0.107269L0.14079 8.97482C0.0703951 9.04634 0 9.18936 0 9.26087C0 9.33239 0.0703951 9.47541 0.14079 9.54692L3.16778 12.622L0.14079 15.7685C1.49012e-08 15.9115 1.49012e-08 16.1976 0.14079 16.4121L8.86978 25.2797C8.94017 25.3512 9.08096 25.4227 9.15136 25.4227C9.22176 25.4227 9.36255 25.3512 9.43294 25.2797L12.0376 22.6337V27.5709C12.0376 27.7855 12.2487 28 12.4599 28C12.6711 28 12.8823 27.7855 12.8823 27.5709V22.6337L15.4869 25.2797C15.5573 25.3512 15.6981 25.4227 15.7685 25.4227C15.8389 25.4227 15.9797 25.3512 16.0501 25.2797L24.7791 16.4121C24.9199 16.2691 24.9199 15.9831 24.7791 15.7685L21.7521 12.6935L24.7791 9.61844C25.0606 9.4039 25.0606 9.11785 24.8495 8.97482ZM12.9527 4.8271L20.2034 12.1929H16.0501L12.9527 9.11785V4.8271ZM1.05593 9.26087L9.15136 1.03693L11.8968 3.82592L3.80133 12.0499L1.05593 9.26087ZM12.108 4.8271V9.04634L9.01057 12.1929H4.85726L12.108 4.8271ZM9.15136 24.2785L1.05593 16.0546L3.80133 13.2656L11.8968 21.4895L9.15136 24.2785ZM4.78687 13.1226H8.94017L12.0376 16.2691V20.4168L4.78687 13.1226ZM12.5303 15.411L9.78491 12.622L12.5303 9.83297L15.2757 12.622L12.5303 15.411ZM12.9527 16.1976L16.0501 13.051H20.2034L12.9527 20.4883V16.1976ZM23.9343 16.0546L15.8389 24.2785L13.0935 21.4895L21.1889 13.2656L23.9343 16.0546ZM21.2593 12.0499L13.0935 3.82592L15.8389 1.03693L23.9343 9.26087L21.2593 12.0499Z" fill="#8A675F"/>
</svg>
