<svg width="45" height="46" viewBox="0 0 45 46" fill="none" xmlns="http://www.w3.org/2000/svg">
<g id="Group 7057">
<g id="Union">
<path d="M22.5362 31.7521V32.977H23.7611V31.7521H22.5362Z" fill="#8A675F"/>
<path d="M22.5362 30.5272V29.3022H23.7611V30.5272H22.5362Z" fill="#8A675F"/>
<path d="M22.5362 26.8524V28.0773H23.7611V26.8524H22.5362Z" fill="#8A675F"/>
<path d="M22.5362 25.6275V24.4026H23.7611V25.6275H22.5362Z" fill="#8A675F"/>
<path d="M12.7369 23.1777H13.9618V21.9528H12.7369V23.1777Z" fill="#8A675F"/>
<path d="M16.4116 23.1777H15.1867V21.9528H16.4116V23.1777Z" fill="#8A675F"/>
<path d="M17.6365 23.1777H18.8614V21.9528H17.6365V23.1777Z" fill="#8A675F"/>
<path d="M21.3113 23.1777H20.0864V21.9528H21.3113V23.1777Z" fill="#8A675F"/>
<path d="M22.5362 23.1777H23.7611V21.9528H22.5362V23.1777Z" fill="#8A675F"/>
<path d="M26.0315 20.5485L25.4191 21.1609L24.5529 20.2948L25.1654 19.6823L26.0315 20.5485Z" fill="#8A675F"/>
<path d="M27.2565 19.3236L27.8689 18.7111L27.0028 17.845L26.3903 18.4574L27.2565 19.3236Z" fill="#8A675F"/>
<path fill-rule="evenodd" clip-rule="evenodd" d="M12.7372 9.70363H15.1867V16.187L9.06213 22.3115V35.7856L6.38031 38.4674L4.52583 36.6517L0.257812 45.167L8.9021 40.9364L7.25562 39.3244L9.92828 36.6517H23.4023L29.5269 30.5272H36.0105V32.977L44.6514 29.9149L36.0105 26.8524V29.3022H29.8857V15.8282H16.4116V9.70363H18.8617L15.7997 0.773438L12.7372 9.70363ZM10.287 22.8189L16.0528 17.0531H28.6608V29.661L22.895 35.4268H10.287V22.8189Z" fill="#8A675F"/>
</g>
</g>
</svg>
