<svg width="50" height="50" viewBox="-10 -6.5 50 50" fill="none" xmlns="http://www.w3.org/2000/svg">
<path d="M29.0975 18.6579L29.0608 23.6799H27.3502C26.9044 23.6799 26.4356 23.8901 26.153 24.3133C25.9679 24.5868 25.7913 24.8797 25.6069 25.1855C25.2161 25.8337 24.7904 26.5398 24.1741 27.2421L24.1735 27.2428C23.6602 27.8289 23.2683 28.2859 23.0113 28.7449C22.7259 29.2545 22.6238 29.7288 22.5714 30.3104C22.5391 30.638 22.5283 30.9283 22.5262 31.1733H18.9182V29.9993V29.0993H18.0182H15.1103H14.2103V29.9993V31.1733H10.825C10.6649 30.1945 10.2288 28.3476 9.00912 27.1185C7.72127 25.813 5.85024 23.4515 6.00201 20.7366L6.0246 20.3326L6.11116 19.8967C6.13585 19.7724 6.15648 19.6692 6.18275 19.5622C6.65748 17.8318 7.35358 16.6532 8.19456 15.792C9.04203 14.9242 10.0853 14.3286 11.3308 13.8363C13.2288 13.0861 15.4468 12.9051 17.236 12.9254C18.1221 12.9354 18.8846 12.9944 19.4239 13.0507C19.6932 13.0788 19.906 13.1061 20.0496 13.1261C20.1214 13.1361 20.1759 13.1443 20.2114 13.1498L20.2503 13.1559L20.2587 13.1573L20.2596 13.1575L20.2599 13.1575L20.2601 13.1575L20.2601 13.1575L20.4619 13.1916L20.6591 13.1348L25.0387 11.871L24.4695 14.5949L24.3983 14.9358L24.575 15.2358L26.1636 17.9329C26.4326 18.4002 26.9208 18.6579 27.4252 18.6579H29.0975Z" stroke="#8A675F" stroke-width="1.8"/>
<path d="M15.212 5.75911C15.212 7.93143 13.451 9.69245 11.2786 9.69245C9.10633 9.69245 7.34531 7.93143 7.34531 5.75911C7.34531 3.58679 9.10633 1.82578 11.2786 1.82578C13.451 1.82578 15.212 3.58679 15.212 5.75911Z" stroke="#8A675F" stroke-width="1.8"/>
<path d="M10.8669 18.9031C10.595 18.9245 10.3118 18.8026 10.1415 18.5565C9.88636 18.192 9.97774 17.6753 10.3355 17.4261C10.514 17.2967 14.7801 14.3267 20.6285 15.6349C21.0609 15.7354 21.3307 16.166 21.2426 16.6055C21.1546 17.045 20.7241 17.3289 20.2917 17.2284C15.1631 16.0749 11.297 18.7346 11.261 18.7567C11.1452 18.8427 11.0075 18.892 10.8669 18.9031Z" fill="#8A675F"/>
<path d="M6.28415 19.4702C5.68252 19.5076 5.07133 19.5356 4.46969 19.4702C4.2214 19.4422 3.94445 19.3862 3.69616 19.3116C3.63886 19.2929 3.58156 19.2742 3.52426 19.2556C3.36192 19.1996 3.42877 19.2182 3.46696 19.2369C3.41922 19.2089 3.36192 19.1902 3.31417 19.1622C3.29507 19.1529 3.14227 19.0502 3.19002 19.0782C2.57883 18.6209 2.23504 17.7249 2.30189 16.9502C2.29234 17.0902 2.33054 16.8476 2.34009 16.8009C2.36874 16.6982 2.25414 16.9316 2.34964 16.7729C2.36874 16.7449 2.38784 16.7076 2.40694 16.6702C2.49289 16.5209 2.34964 16.7262 2.41649 16.6516C2.44514 16.6142 2.48334 16.5862 2.52153 16.5489C2.55018 16.5209 2.62658 16.4836 2.51198 16.5489C2.55973 16.5209 2.60748 16.4929 2.65523 16.4649C2.79848 16.3716 2.56928 16.4929 2.66478 16.4649C2.71253 16.4462 2.75073 16.4369 2.79848 16.4182C2.83668 16.4089 2.87488 16.3996 2.91308 16.3902C2.76983 16.4276 2.84623 16.3902 2.89398 16.3902C2.96083 16.3902 3.20912 16.4276 3.03722 16.3902C3.07542 16.3902 3.11362 16.4089 3.14227 16.4182C3.21867 16.4369 3.28552 16.4836 3.18047 16.4276C3.21867 16.4556 3.26642 16.4742 3.30462 16.5022C3.39057 16.5582 3.20912 16.3902 3.32372 16.5209C3.35237 16.5489 3.38102 16.5769 3.40967 16.6049C3.32372 16.5022 3.40967 16.6049 3.42877 16.6422C3.54336 16.8476 3.56246 17.0156 3.54336 17.2582C3.51471 17.6969 3.30462 18.1916 3.08497 18.5929C2.53108 19.5729 1.5761 20.3102 0.496978 20.6276C-0.381603 20.8889 -0.00916127 22.2422 0.87897 21.9809C2.27324 21.5609 3.51471 20.6462 4.2596 19.4142C4.93763 18.2849 5.47242 16.4462 4.2596 15.4569C3.29507 14.6636 1.77665 14.9529 1.14636 16.0076C0.468329 17.1369 1.03177 18.7236 1.79575 19.6662C2.84623 20.9542 4.74664 20.9729 6.2937 20.8702C6.6757 20.8422 7.00994 20.5716 7.00994 20.1702C7.00994 19.8156 6.68525 19.4422 6.2937 19.4702H6.28415Z" fill="#8A675F"/>
</svg>
