<svg width="79" height="20" viewBox="0 0 79 20" fill="none" xmlns="http://www.w3.org/2000/svg">
<g id="Group 60">
<rect id="Rectangle 240" x="0.6875" width="78" height="20" rx="10" fill="url(#paint0_linear_2504_4012)"/>
<g id="Group 1283">
<path id="Star 1" d="M52.9755 5.60059L54.5677 7.91L57.2691 8.70163L55.5517 10.9206L55.6291 13.7192L52.9755 12.7812L50.3219 13.7192L50.3993 10.9206L48.6819 8.70163L51.3834 7.91L52.9755 5.60059Z" fill="#8A675F"/>
<path id="Star 6" d="M66.2451 5.60059L67.8372 7.91L70.5387 8.70163L68.8212 10.9206L68.8987 13.7192L66.2451 12.7812L63.5914 13.7192L63.6689 10.9206L61.9514 8.70163L64.6529 7.91L66.2451 5.60059Z" fill="#8A675F"/>
<path id="Star 2" d="M39.704 5.60059L41.2962 7.91L43.9977 8.70163L42.2802 10.9206L42.3576 13.7192L39.704 12.7812L37.0504 13.7192L37.1279 10.9206L35.4104 8.70163L38.1119 7.91L39.704 5.60059Z" fill="#8A675F"/>
<path id="Star 3" d="M26.4326 5.60059L28.0247 7.91L30.7262 8.70163L29.0087 10.9206L29.0862 13.7192L26.4326 12.7812L23.7789 13.7192L23.8564 10.9206L22.1389 8.70163L24.8404 7.91L26.4326 5.60059Z" fill="#8A675F"/>
<path id="Star 4" d="M13.1611 5.60059L14.7532 7.91L17.4547 8.70163L15.7372 10.9206L15.8147 13.7192L13.1611 12.7812L10.5075 13.7192L10.5849 10.9206L8.86744 8.70163L11.5689 7.91L13.1611 5.60059Z" fill="#8A675F"/>
</g>
</g>
<defs>
<linearGradient id="paint0_linear_2504_4012" x1="-87.3125" y1="7.0359" x2="150.127" y2="-22.9644" gradientUnits="userSpaceOnUse">
<stop stop-color="#FFDE00"/>
<stop offset="0.538518" stop-color="#FEE2AB"/>
<stop offset="1" stop-color="#FEECC2"/>
</linearGradient>
</defs>
</svg>
