<?xml version="1.0" encoding="utf-8"?>
<!-- Generator: Adobe Illustrator 28.0.0, SVG Export Plug-In . SVG Version: 6.00 Build 0)  -->
<svg version="1.1" id="Layer_1" xmlns="http://www.w3.org/2000/svg" xmlns:xlink="http://www.w3.org/1999/xlink" x="0px" y="0px"
	 viewBox="0 0 29 27" style="enable-background:new 0 0 29 27;" xml:space="preserve">
<style type="text/css">
	.st0{opacity:0.3;}
	.st1{fill:#9C827B;}
	.st2{fill:#8A675F;}
</style>
<g class="st0">
	<polygon class="st1" points="4.2,0.7 1.6,7.6 6.9,7.6 	"/>
	<path class="st1" d="M4.2,14.8c-0.4,0-0.7,0.3-0.7,0.7s0.3,0.7,0.7,0.7s0.7-0.3,0.7-0.7v0C4.9,15.2,4.6,14.8,4.2,14.8z"/>
	<path class="st1" d="M4.9,12.5c0-0.4-0.3-0.7-0.7-0.7s-0.7,0.3-0.7,0.7s0.3,0.7,0.7,0.7S4.9,12.9,4.9,12.5L4.9,12.5z"/>
	<path class="st1" d="M4.2,19.3c0.4,0,0.7-0.3,0.7-0.7v0c0-0.4-0.3-0.7-0.7-0.7s-0.7,0.3-0.7,0.7S3.8,19.3,4.2,19.3z"/>
	<path class="st1" d="M4.9,9.5c0-0.4-0.3-0.7-0.7-0.7S3.5,9.1,3.5,9.5s0.3,0.7,0.7,0.7S4.9,9.9,4.9,9.5L4.9,9.5z"/>
	<path class="st1" d="M4.7,21.1C4.6,21,4.5,21,4.4,21c-0.2-0.1-0.4-0.1-0.5,0c-0.1,0-0.2,0.1-0.2,0.2c-0.1,0.1-0.1,0.1-0.2,0.2
		c0,0.1,0,0.2,0,0.3c0,0.1,0,0.2,0,0.3c0,0.1,0.1,0.2,0.2,0.2c0.1,0.1,0.1,0.1,0.2,0.2c0.1,0,0.2,0.1,0.3,0.1c0.1,0,0.2,0,0.3-0.1
		c0.1,0,0.2-0.1,0.2-0.2c0.1-0.1,0.1-0.2,0.1-0.2c0-0.1,0.1-0.2,0.1-0.3c0-0.1,0-0.2-0.1-0.3C4.8,21.3,4.8,21.2,4.7,21.1z"/>
</g>
<g class="st0">
	<polygon class="st1" points="12.9,11.2 16.3,14.5 20.4,7.9 	"/>
	<path class="st1" d="M5.9,19.1c-0.3,0.3-0.3,0.7-0.1,1c0.1,0.2,0.3,0.2,0.5,0.2c0.2,0,0.3-0.1,0.5-0.2l0,0c0.3-0.3,0.3-0.7,0.1-1
		C6.7,18.9,6.2,18.9,5.9,19.1z"/>
	<path class="st1" d="M8.2,17.3c-0.3,0.2-0.4,0.7-0.1,1c0.1,0.2,0.4,0.3,0.6,0.3c0.1,0,0.3,0,0.4-0.1l0,0c0.3-0.2,0.4-0.7,0.1-1
		C9,17.1,8.5,17,8.2,17.3z"/>
	<path class="st1" d="M10.4,15.5c-0.3,0.3-0.3,0.7-0.1,1c0.1,0.2,0.3,0.2,0.5,0.2c0.2,0,0.3-0.1,0.5-0.2l0,0c0.3-0.3,0.3-0.7,0.1-1
		C11.2,15.2,10.7,15.2,10.4,15.5z"/>
	<path class="st1" d="M12.7,13.6c-0.3,0.2-0.4,0.7-0.1,1c0.1,0.2,0.4,0.3,0.6,0.3c0.1,0,0.3,0,0.4-0.1l0,0c0.3-0.2,0.4-0.7,0.1-1
		C13.5,13.4,13,13.4,12.7,13.6z"/>
</g>
<path class="st2" d="M13.5,26.6v-8.3l13.8,4.1L13.5,26.6z"/>
<rect x="0.6" y="21.7" class="st2" width="23.3" height="1.5"/>
</svg>
