<?xml version="1.0" encoding="utf-8"?>
<!-- Generator: Adobe Illustrator 28.0.0, SVG Export Plug-In . SVG Version: 6.00 Build 0)  -->
<svg version="1.1" id="Layer_1" xmlns="http://www.w3.org/2000/svg" xmlns:xlink="http://www.w3.org/1999/xlink" x="0px" y="0px"
	 viewBox="0 0 29 27" style="enable-background:new 0 0 29 27;" xml:space="preserve">
<style type="text/css">
	.st0{opacity:0.3;}
	.st1{fill:#9C827B;}
	.st2{fill:#8A675F;}
</style>
<g>
	<g class="st0">
		<path class="st1" d="M19.1,25.1v-5l8.6,2.5L19.1,25.1z"/>
		<g>
			<path class="st1" d="M16.7,23.4L16.7,23.4c-0.4,0-0.7-0.3-0.7-0.7s0.3-0.7,0.7-0.7s0.7,0.3,0.7,0.7S17.1,23.4,16.7,23.4z
				 M13.6,23.4L13.6,23.4c-0.4,0-0.7-0.3-0.7-0.7s0.3-0.7,0.7-0.7s0.7,0.3,0.7,0.7S14,23.4,13.6,23.4z M10.4,23.4L10.4,23.4
				c-0.4,0-0.7-0.3-0.7-0.7s0.3-0.7,0.7-0.7s0.7,0.3,0.7,0.7S10.8,23.4,10.4,23.4z M7.3,23.4L7.3,23.4c-0.4,0-0.7-0.3-0.7-0.7
				s0.3-0.7,0.7-0.7S8,22.3,8,22.7S7.7,23.4,7.3,23.4z"/>
		</g>
		<path class="st1" d="M17.5,14.7l-3.4-3.4l7.5-3.3L17.5,14.7z"/>
		<g>
			<path class="st1" d="M7.3,20.6c-0.2,0-0.4-0.1-0.5-0.2c-0.3-0.3-0.2-0.7,0.1-1c0.3-0.3,0.8-0.2,1,0.1c0.3,0.3,0.2,0.7-0.1,1l0,0
				C7.6,20.5,7.4,20.6,7.3,20.6z M9.5,18.7c-0.2,0-0.4-0.1-0.6-0.3c-0.2-0.3-0.2-0.8,0.1-1c0.3-0.2,0.8-0.2,1,0.1s0.2,0.8-0.1,1l0,0
				C9.8,18.7,9.7,18.7,9.5,18.7z M11.8,16.9c-0.2,0-0.4-0.1-0.5-0.2c-0.3-0.3-0.2-0.7,0.1-1c0.3-0.3,0.8-0.2,1,0.1
				c0.3,0.3,0.2,0.7-0.1,1l0,0C12.1,16.9,11.9,16.9,11.8,16.9z M14,15.1c-0.2,0-0.4-0.1-0.6-0.3c-0.2-0.3-0.2-0.8,0.1-1
				c0.3-0.2,0.8-0.2,1,0.1c0.2,0.3,0.2,0.8-0.1,1l0,0C14.3,15.1,14.2,15.1,14,15.1z"/>
		</g>
	</g>
	<polygon class="st2" points="9.3,11.6 5,0 0.7,11.6 4.3,11.6 4.3,26.3 5.7,26.3 5.7,11.6 	"/>
</g>
</svg>
