<svg width="25" height="26" viewBox="0 0 25 26" fill="none" xmlns="http://www.w3.org/2000/svg">
<rect x="0.5" y="0.697266" width="24" height="23.9456" stroke="#756B6B"/>
<path d="M10.5264 9.3877V15.9523L15.7895 12.67L10.5264 9.3877Z" stroke="#756B6B"/>
<rect x="20.2373" y="0.697266" width="4.26316" height="4.25172" stroke="#756B6B"/>
<rect x="12.3418" y="0.697266" width="4.26316" height="4.25172" stroke="#756B6B"/>
<rect x="4.44727" y="0.697266" width="4.26316" height="4.25172" stroke="#756B6B"/>
<rect x="16.2891" y="0.697266" width="4.26316" height="4.25172" stroke="#756B6B"/>
<rect x="8.39453" y="0.697266" width="4.26316" height="4.25172" stroke="#756B6B"/>
<rect x="0.5" y="0.697266" width="4.26316" height="4.25172" stroke="#756B6B"/>
<rect x="20.2373" y="20.3916" width="4.26316" height="4.25172" stroke="#756B6B"/>
<rect x="12.3418" y="20.3916" width="4.26316" height="4.25172" stroke="#756B6B"/>
<rect x="4.44727" y="20.3916" width="4.26316" height="4.25172" stroke="#756B6B"/>
<rect x="16.2891" y="20.3916" width="4.26316" height="4.25172" stroke="#756B6B"/>
<rect x="8.39453" y="20.3916" width="4.26316" height="4.25172" stroke="#756B6B"/>
<rect x="0.5" y="20.3916" width="4.26316" height="4.25172" stroke="#756B6B"/>
</svg>
