<svg width="65" height="77" viewBox="0 0 65 77" fill="none" xmlns="http://www.w3.org/2000/svg">
<path d="M64.6086 23.6552L41.9132 1.19069C41.5472 0.828363 40.8151 0.828363 40.266 1.19069L32.3958 8.98079L24.5256 1.19069C24.1596 0.828363 23.4275 0.828363 22.8784 1.19069L0.366054 23.6552C0.183027 23.8363 0 24.1987 0 24.3798C0 24.561 0.183027 24.9233 0.366054 25.1045L8.23623 32.8946L0.366054 40.8658C5.96046e-08 41.2282 5.96046e-08 41.9528 0.366054 42.4963L23.0614 64.9608C23.2445 65.142 23.6105 65.3231 23.7935 65.3231C23.9766 65.3231 24.3426 65.142 24.5256 64.9608L31.2977 58.2577V75.832C31.2977 76.3755 31.8467 76.9189 32.3958 76.9189C32.9449 76.9189 33.494 76.3755 33.494 75.832V58.2577L40.266 64.9608C40.449 65.142 40.8151 65.3231 40.9981 65.3231C41.1811 65.3231 41.5472 65.142 41.7302 64.9608L64.4256 42.4963C64.7916 42.134 64.7916 41.4093 64.4256 40.8658L56.5554 33.0758L64.4256 25.2857C65.1577 24.7422 65.1577 24.0175 64.6086 23.6552ZM33.677 13.1476L52.5288 31.8076H41.7302L33.677 24.0175V13.1476ZM2.74541 24.3798L23.7935 3.54584L30.9316 10.6113L9.88347 31.4453L2.74541 24.3798ZM31.4807 13.1476V23.8363L23.4275 31.8076H12.6289L31.4807 13.1476ZM23.7935 62.4245L2.74541 41.5905L9.88347 34.5251L30.9316 55.3591L23.7935 62.4245ZM12.4459 34.1627H23.2445L31.2977 42.134V52.6416L12.4459 34.1627ZM32.5788 39.96L25.4408 32.8946L32.5788 25.8291L39.7169 32.8946L32.5788 39.96ZM33.677 41.9528L41.7302 33.9816H52.5288L33.677 52.8227V41.9528ZM62.2293 41.5905L41.1811 62.4245L34.0431 55.3591L55.0912 34.5251L62.2293 41.5905ZM55.2742 31.4453L34.0431 10.6113L41.1811 3.54584L62.2293 24.3798L55.2742 31.4453Z" fill="#886761"/>
</svg>
