<svg width="305" height="59" viewBox="0 0 305 59" fill="none" xmlns="http://www.w3.org/2000/svg">
<path d="M41.7832 21.5648L29.2135 9.15018C29.0107 8.94994 28.6053 8.94994 28.3012 9.15018L23.9423 13.4552L19.5834 9.15018C19.3807 8.94994 18.9752 8.94994 18.6711 9.15018L6.20274 21.5648C6.10137 21.6649 6 21.8651 6 21.9652C6 22.0653 6.10137 22.2656 6.20274 22.3657L10.5616 26.6707L6.20274 31.0759C6 31.2762 6 31.6766 6.20274 31.977L18.7725 44.3916C18.8739 44.4917 19.0766 44.5918 19.178 44.5918C19.2793 44.5918 19.4821 44.4917 19.5834 44.3916L23.3341 40.6872V50.3993C23.3341 50.6997 23.6382 51 23.9423 51C24.2464 51 24.5505 50.6997 24.5505 50.3993V40.6872L28.3012 44.3916C28.4025 44.4917 28.6053 44.5918 28.7066 44.5918C28.808 44.5918 29.0107 44.4917 29.1121 44.3916L41.6819 31.977C41.8846 31.7767 41.8846 31.3763 41.6819 31.0759L37.323 26.7709L41.6819 22.4658C42.0873 22.1655 42.0873 21.765 41.7832 21.5648ZM24.6519 15.7579L35.0929 26.07H29.1121L24.6519 21.765V15.7579ZM7.52053 21.9652L19.178 10.4517L23.1313 14.3563L11.4739 25.8698L7.52053 21.9652ZM23.4355 15.7579V21.6649L18.9752 26.07H12.9945L23.4355 15.7579ZM19.178 42.9899L7.52053 31.4764L11.4739 27.5718L23.1313 39.0853L19.178 42.9899ZM12.8931 27.3716H18.8738L23.3341 31.7767V37.5836L12.8931 27.3716ZM24.0437 30.5753L20.0903 26.6707L24.0437 22.7662L27.9971 26.6707L24.0437 30.5753ZM24.6519 31.6766L29.1121 27.2715H35.0929L24.6519 37.6837V31.6766ZM40.4654 31.4764L28.808 42.9899L24.8546 39.0853L36.512 27.5718L40.4654 31.4764ZM36.6134 25.8698L24.8546 14.3563L28.808 10.4517L40.4654 21.9652L36.6134 25.8698Z" fill="#886761"/>
<path d="M69.8835 18.9346H68.7429C68.6614 18.9346 68.6265 18.9004 68.6265 18.8205V11.2885C68.6265 11.2086 68.6614 11.1744 68.7429 11.1744H73.2822C73.3637 11.1744 73.3986 11.2086 73.3986 11.2885V12.2813C73.3986 12.3498 73.3637 12.3841 73.2822 12.3841H70.0697C70.0232 12.3841 69.9999 12.4069 69.9999 12.4525V18.8205C69.9999 18.9004 69.965 18.9346 69.8835 18.9346Z" fill="#8A675F"/>
<path d="M81.8138 19.0602C80.4288 19.0602 79.4278 18.4097 79.0204 17.1886C78.8807 16.7777 78.8109 16.0702 78.8109 15.0545C78.8109 14.0388 78.8807 13.3313 79.0204 12.9204C79.4278 11.6993 80.4288 11.0488 81.8138 11.0488C83.2106 11.0488 84.2115 11.6993 84.6189 12.9204C84.7586 13.3313 84.8284 14.0388 84.8284 15.0545C84.8284 16.0702 84.7586 16.7777 84.6189 17.1886C84.2115 18.4097 83.2106 19.0602 81.8138 19.0602ZM81.8138 17.8505C82.5588 17.8505 83.0476 17.5081 83.292 16.8348C83.3851 16.5495 83.4317 15.9561 83.4317 15.0545C83.4317 14.1529 83.3851 13.5595 83.292 13.2742C83.0476 12.6009 82.5588 12.2585 81.8138 12.2585C81.0806 12.2585 80.5917 12.6009 80.3473 13.2742C80.2542 13.5595 80.2076 14.1529 80.2076 15.0545C80.2076 15.9561 80.2542 16.5495 80.3473 16.8348C80.5917 17.5081 81.0806 17.8505 81.8138 17.8505Z" fill="#8A675F"/>
<path d="M95.2451 19.0602H94.0811C94.0113 19.0602 93.9764 19.0259 93.9764 18.9461V18.1016C93.9764 18.0559 93.9531 18.0331 93.9066 18.0331C91.6834 17.9304 90.5661 16.8804 90.5661 14.8833C90.5661 12.9547 91.7184 11.9276 93.9066 11.8363C93.9531 11.8363 93.9764 11.8134 93.9764 11.7678V11.1515C93.9764 11.0831 94.0113 11.0488 94.0928 11.0488H95.2451C95.3149 11.0488 95.3498 11.0831 95.3498 11.1515V11.7678C95.3498 11.8134 95.3731 11.8363 95.4197 11.8363C97.6079 11.9276 98.7718 12.9547 98.7718 14.8833C98.7718 16.8804 97.6544 17.9304 95.4197 18.0331C95.3731 18.0331 95.3498 18.0559 95.3498 18.1016V18.9461C95.3498 19.0259 95.3149 19.0602 95.2451 19.0602ZM93.9066 16.8348C93.9531 16.8348 93.9764 16.812 93.9764 16.7663V13.0916C93.9764 13.0574 93.9531 13.0345 93.9066 13.0345C92.5564 13.0688 91.9395 13.6965 91.9395 14.9404C91.9395 16.1501 92.5913 16.7777 93.9066 16.8348ZM95.4313 16.8348C96.7466 16.7777 97.3984 16.1501 97.3984 14.9404C97.3984 13.6965 96.7815 13.0688 95.4313 13.0345C95.3731 13.0345 95.3498 13.0574 95.3498 13.0916V16.7663C95.3498 16.812 95.3731 16.8348 95.4313 16.8348Z" fill="#8A675F"/>
<path d="M106.585 18.9346H105.444C105.363 18.9346 105.328 18.9004 105.328 18.8205V11.2885C105.328 11.2086 105.363 11.1744 105.444 11.1744H108.412C109.18 11.1744 109.809 11.4026 110.286 11.8477C110.775 12.2928 111.019 12.8634 111.019 13.5823C111.019 14.3013 110.775 14.8947 110.286 15.3398C109.809 15.7849 109.18 16.0017 108.412 16.0017H106.771C106.724 16.0017 106.701 16.0245 106.701 16.0702V18.8205C106.701 18.9004 106.666 18.9346 106.585 18.9346ZM106.771 14.7806H108.331C109.134 14.7806 109.646 14.3127 109.646 13.5823C109.646 12.8634 109.134 12.3841 108.331 12.3841H106.771C106.724 12.3841 106.701 12.4069 106.701 12.4525V14.7121C106.701 14.7578 106.724 14.7806 106.771 14.7806Z" fill="#8A675F"/>
<path d="M120.292 19.0602C118.907 19.0602 117.906 18.4097 117.498 17.1886C117.359 16.7777 117.289 16.0702 117.289 15.0545C117.289 14.0388 117.359 13.3313 117.498 12.9204C117.906 11.6993 118.907 11.0488 120.292 11.0488C121.689 11.0488 122.69 11.6993 123.097 12.9204C123.237 13.3313 123.306 14.0388 123.306 15.0545C123.306 16.0702 123.237 16.7777 123.097 17.1886C122.69 18.4097 121.689 19.0602 120.292 19.0602ZM120.292 17.8505C121.037 17.8505 121.526 17.5081 121.77 16.8348C121.863 16.5495 121.91 15.9561 121.91 15.0545C121.91 14.1529 121.863 13.5595 121.77 13.2742C121.526 12.6009 121.037 12.2585 120.292 12.2585C119.559 12.2585 119.07 12.6009 118.825 13.2742C118.732 13.5595 118.686 14.1529 118.686 15.0545C118.686 15.9561 118.732 16.5495 118.825 16.8348C119.07 17.5081 119.559 17.8505 120.292 17.8505Z" fill="#8A675F"/>
<path d="M136.645 20.5552H135.562C135.504 20.5552 135.469 20.5209 135.469 20.4525V19.0031C135.469 18.9575 135.446 18.9346 135.399 18.9346H130.173C130.092 18.9346 130.057 18.9004 130.057 18.8319V11.2885C130.057 11.2086 130.092 11.1744 130.173 11.1744H131.325C131.395 11.1744 131.43 11.2086 131.43 11.2885V17.6565C131.43 17.7021 131.453 17.7249 131.5 17.7249H134.433C134.48 17.7249 134.503 17.7021 134.503 17.6565V11.2885C134.503 11.2086 134.538 11.1744 134.608 11.1744H135.772C135.841 11.1744 135.876 11.2086 135.876 11.2885V17.6565C135.876 17.7021 135.9 17.7249 135.946 17.7249H136.633C136.714 17.7249 136.749 17.7592 136.749 17.8277V20.4525C136.749 20.5209 136.714 20.5552 136.645 20.5552Z" fill="#8A675F"/>
<path d="M148.132 18.9346H143.174C143.093 18.9346 143.058 18.9004 143.058 18.8205V11.2885C143.058 11.2086 143.093 11.1744 143.174 11.1744H148.132C148.214 11.1744 148.249 11.2086 148.249 11.2885V12.2699C148.249 12.3498 148.214 12.3841 148.132 12.3841H144.501C144.454 12.3841 144.431 12.4069 144.431 12.4525V14.3469C144.431 14.3926 144.454 14.4154 144.501 14.4154H147.562C147.644 14.4154 147.679 14.4497 147.679 14.5295V15.511C147.679 15.5909 147.644 15.6251 147.562 15.6251H144.501C144.454 15.6251 144.431 15.6479 144.431 15.6936V17.6565C144.431 17.7021 144.454 17.7249 144.501 17.7249H148.132C148.214 17.7249 148.249 17.7592 148.249 17.8391V18.8205C148.249 18.9004 148.214 18.9346 148.132 18.9346Z" fill="#8A675F"/>
<path d="M156.191 18.9346H155.05C154.968 18.9346 154.934 18.9004 154.934 18.8205V11.2885C154.934 11.2086 154.968 11.1744 155.05 11.1744H156.191C156.272 11.1744 156.307 11.2086 156.307 11.2885V14.3469C156.307 14.3926 156.33 14.4154 156.377 14.4154H159.391C159.438 14.4154 159.461 14.3926 159.461 14.3469V11.2885C159.461 11.2086 159.496 11.1744 159.578 11.1744H160.718C160.8 11.1744 160.835 11.2086 160.835 11.2885V18.8205C160.835 18.9004 160.8 18.9346 160.718 18.9346H159.578C159.496 18.9346 159.461 18.9004 159.461 18.8205V15.6936C159.461 15.6479 159.438 15.6251 159.391 15.6251H156.377C156.33 15.6251 156.307 15.6479 156.307 15.6936V18.8205C156.307 18.9004 156.272 18.9346 156.191 18.9346Z" fill="#8A675F"/>
<path d="M170.719 18.9346H169.578C169.497 18.9346 169.462 18.9004 169.462 18.8205V12.4525C169.462 12.4069 169.439 12.3841 169.392 12.3841H167.32C167.239 12.3841 167.204 12.3498 167.204 12.2699V11.2885C167.204 11.2086 167.239 11.1744 167.32 11.1744H172.977C173.059 11.1744 173.094 11.2086 173.094 11.2885V12.2699C173.094 12.3498 173.059 12.3841 172.977 12.3841H170.905C170.859 12.3841 170.835 12.4069 170.835 12.4525V18.8205C170.835 18.9004 170.801 18.9346 170.719 18.9346Z" fill="#8A675F"/>
<path d="M180.715 18.9346H179.574C179.493 18.9346 179.458 18.9004 179.458 18.8205V11.2885C179.458 11.2086 179.493 11.1744 179.574 11.1744H182.542C183.311 11.1744 183.939 11.4026 184.416 11.8477C184.905 12.2928 185.15 12.8634 185.15 13.5823C185.15 14.3013 184.905 14.8947 184.416 15.3398C183.939 15.7849 183.311 16.0017 182.542 16.0017H180.901C180.855 16.0017 180.831 16.0245 180.831 16.0702V18.8205C180.831 18.9004 180.796 18.9346 180.715 18.9346ZM180.901 14.7806H182.461C183.264 14.7806 183.776 14.3127 183.776 13.5823C183.776 12.8634 183.264 12.3841 182.461 12.3841H180.901C180.855 12.3841 180.831 12.4069 180.831 12.4525V14.7121C180.831 14.7578 180.855 14.7806 180.901 14.7806Z" fill="#8A675F"/>
<path d="M69.257 47.0075H68.1164C68.0349 47.0075 68 46.9732 68 46.8934V39.3613C68 39.2814 68.0349 39.2472 68.1164 39.2472H69.257C69.3385 39.2472 69.3734 39.2814 69.3734 39.3613V42.4198C69.3734 42.4654 69.3967 42.4883 69.4433 42.4883H72.4579C72.5044 42.4883 72.5277 42.4654 72.5277 42.4198V39.3613C72.5277 39.2814 72.5626 39.2472 72.6441 39.2472H73.7847C73.8662 39.2472 73.9011 39.2814 73.9011 39.3613V46.8934C73.9011 46.9732 73.8662 47.0075 73.7847 47.0075H72.6441C72.5626 47.0075 72.5277 46.9732 72.5277 46.8934V43.7664C72.5277 43.7208 72.5044 43.698 72.4579 43.698H69.4433C69.3967 43.698 69.3734 43.7208 69.3734 43.7664V46.8934C69.3734 46.9732 69.3385 47.0075 69.257 47.0075Z" fill="#8A675F"/>
<path d="M80.8874 47.0075H79.7584C79.6769 47.0075 79.6536 46.9732 79.6769 46.8934L82.3889 39.3613C82.4121 39.2814 82.4587 39.2472 82.5402 39.2472H83.611C83.6925 39.2472 83.739 39.2814 83.7623 39.3613L86.4393 46.8934C86.4626 46.9732 86.4393 47.0075 86.3579 47.0075H85.2172C85.1357 47.0075 85.0892 46.9732 85.0659 46.8934L84.5421 45.387H81.5625L81.0387 46.8934C81.0154 46.9732 80.9689 47.0075 80.8874 47.0075ZM83.0407 41.1759L81.9815 44.1887H84.1231L83.0756 41.1759H83.0407Z" fill="#8A675F"/>
<path d="M108.467 48.628H107.385C107.326 48.628 107.291 48.5938 107.291 48.5253V47.076C107.291 47.0303 107.268 47.0075 107.222 47.0075H101.995C101.914 47.0075 101.879 46.9732 101.879 46.9048V39.3613C101.879 39.2814 101.914 39.2472 101.995 39.2472H103.148C103.218 39.2472 103.253 39.2814 103.253 39.3613V45.7293C103.253 45.775 103.276 45.7978 103.322 45.7978H106.255C106.302 45.7978 106.325 45.775 106.325 45.7293V39.3613C106.325 39.2814 106.36 39.2472 106.43 39.2472H107.594C107.664 39.2472 107.699 39.2814 107.699 39.3613V45.7293C107.699 45.775 107.722 45.7978 107.769 45.7978H108.455C108.537 45.7978 108.572 45.832 108.572 45.9005V48.5253C108.572 48.5938 108.537 48.628 108.467 48.628Z" fill="#8A675F"/>
<path d="M118.407 47.0075H115.579C115.497 47.0075 115.462 46.9732 115.462 46.8934V39.3613C115.462 39.2814 115.497 39.2472 115.579 39.2472H118.523C120.153 39.2472 120.991 40.0346 120.991 41.3128C120.991 42.0774 120.688 42.6252 120.071 42.9447V42.9904C120.63 43.2072 121.13 43.8463 121.13 44.725C121.13 46.2429 120.164 47.0075 118.407 47.0075ZM116.905 45.8206H118.558C119.315 45.8206 119.757 45.387 119.757 44.7365C119.757 44.086 119.315 43.6637 118.558 43.6637H116.905C116.859 43.6637 116.836 43.6865 116.836 43.7322V45.7521C116.836 45.7978 116.859 45.8206 116.905 45.8206ZM116.905 42.4768H118.488C119.187 42.4768 119.617 42.066 119.617 41.4612C119.617 40.8335 119.187 40.4341 118.488 40.4341H116.905C116.859 40.4341 116.836 40.4569 116.836 40.5025V42.4084C116.836 42.454 116.859 42.4768 116.905 42.4768Z" fill="#8A675F"/>
<path d="M133.427 47.0075H128.468C128.387 47.0075 128.352 46.9732 128.352 46.8934V39.3613C128.352 39.2814 128.387 39.2472 128.468 39.2472H133.427C133.508 39.2472 133.543 39.2814 133.543 39.3613V40.3428C133.543 40.4227 133.508 40.4569 133.427 40.4569H129.795C129.748 40.4569 129.725 40.4797 129.725 40.5254V42.4198C129.725 42.4654 129.748 42.4883 129.795 42.4883H132.856C132.938 42.4883 132.973 42.5225 132.973 42.6024V43.5838C132.973 43.6637 132.938 43.698 132.856 43.698H129.795C129.748 43.698 129.725 43.7208 129.725 43.7664V45.7293C129.725 45.775 129.748 45.7978 129.795 45.7978H133.427C133.508 45.7978 133.543 45.832 133.543 45.9119V46.8934C133.543 46.9732 133.508 47.0075 133.427 47.0075Z" fill="#8A675F"/>
<path d="M143.126 47.0075H141.985C141.904 47.0075 141.869 46.9732 141.869 46.8934V40.5254C141.869 40.4797 141.845 40.4569 141.799 40.4569H139.727C139.646 40.4569 139.611 40.4227 139.611 40.3428V39.3613C139.611 39.2814 139.646 39.2472 139.727 39.2472H145.384C145.465 39.2472 145.5 39.2814 145.5 39.3613V40.3428C145.5 40.4227 145.465 40.4569 145.384 40.4569H143.312C143.265 40.4569 143.242 40.4797 143.242 40.5254V46.8934C143.242 46.9732 143.207 47.0075 143.126 47.0075Z" fill="#8A675F"/>
<path d="M154.407 47.133C153.022 47.133 152.021 46.4825 151.614 45.2614C151.474 44.8506 151.404 44.143 151.404 43.1273C151.404 42.1117 151.474 41.4041 151.614 40.9933C152.021 39.7722 153.022 39.1217 154.407 39.1217C155.804 39.1217 156.805 39.7722 157.213 40.9933C157.352 41.4041 157.422 42.1117 157.422 43.1273C157.422 44.143 157.352 44.8506 157.213 45.2614C156.805 46.4825 155.804 47.133 154.407 47.133ZM154.407 45.9233C155.152 45.9233 155.641 45.581 155.886 44.9076C155.979 44.6223 156.025 44.0289 156.025 43.1273C156.025 42.2258 155.979 41.6323 155.886 41.347C155.641 40.6737 155.152 40.3314 154.407 40.3314C153.674 40.3314 153.185 40.6737 152.941 41.347C152.848 41.6323 152.801 42.2258 152.801 43.1273C152.801 44.0289 152.848 44.6223 152.941 44.9076C153.185 45.581 153.674 45.9233 154.407 45.9233Z" fill="#8A675F"/>
<path d="M169.433 47.0075H168.269C168.199 47.0075 168.165 46.9732 168.165 46.8934V44.0746C168.165 44.0175 168.13 43.9947 168.06 44.0061C167.396 44.2001 166.756 44.2914 166.139 44.2914C164.696 44.2914 163.974 43.6181 163.974 42.2714V39.3499C163.974 39.2814 164.009 39.2472 164.091 39.2472H165.231C165.313 39.2472 165.348 39.2814 165.348 39.3499V41.9861C165.348 42.7051 165.732 43.0589 166.512 43.0589C167.024 43.0589 167.524 42.979 168.025 42.8306C168.118 42.8078 168.165 42.7622 168.165 42.6823V39.3499C168.165 39.2814 168.199 39.2472 168.269 39.2472H169.422C169.503 39.2472 169.538 39.2814 169.538 39.3499V46.8934C169.538 46.9732 169.503 47.0075 169.433 47.0075Z" fill="#8A675F"/>
<path d="M177.782 47.0075H176.642C176.56 47.0075 176.525 46.9732 176.525 46.8934V39.3613C176.525 39.2814 176.56 39.2472 176.642 39.2472H177.782C177.864 39.2472 177.899 39.2814 177.899 39.3613V42.4198C177.899 42.4654 177.922 42.4883 177.969 42.4883H180.983C181.03 42.4883 181.053 42.4654 181.053 42.4198V39.3613C181.053 39.2814 181.088 39.2472 181.17 39.2472H182.31C182.392 39.2472 182.427 39.2814 182.427 39.3613V46.8934C182.427 46.9732 182.392 47.0075 182.31 47.0075H181.17C181.088 47.0075 181.053 46.9732 181.053 46.8934V43.7664C181.053 43.7208 181.03 43.698 180.983 43.698H177.969C177.922 43.698 177.899 43.7208 177.899 43.7664V46.8934C177.899 46.9732 177.864 47.0075 177.782 47.0075Z" fill="#8A675F"/>
<path d="M192.183 47.133C190.798 47.133 189.797 46.4825 189.39 45.2614C189.25 44.8506 189.18 44.143 189.18 43.1273C189.18 42.1117 189.25 41.4041 189.39 40.9933C189.797 39.7722 190.798 39.1217 192.183 39.1217C193.58 39.1217 194.581 39.7722 194.988 40.9933C195.128 41.4041 195.198 42.1117 195.198 43.1273C195.198 44.143 195.128 44.8506 194.988 45.2614C194.581 46.4825 193.58 47.133 192.183 47.133ZM192.183 45.9233C192.928 45.9233 193.417 45.581 193.661 44.9076C193.754 44.6223 193.801 44.0289 193.801 43.1273C193.801 42.2258 193.754 41.6323 193.661 41.347C193.417 40.6737 192.928 40.3314 192.183 40.3314C191.45 40.3314 190.961 40.6737 190.716 41.347C190.623 41.6323 190.577 42.2258 190.577 43.1273C190.577 44.0289 190.623 44.6223 190.716 44.9076C190.961 45.581 191.45 45.9233 192.183 45.9233Z" fill="#8A675F"/>
<path d="M203.135 47.0075H202.064C201.983 47.0075 201.948 46.9732 201.948 46.8934V39.3499C201.948 39.2814 201.983 39.2472 202.064 39.2472H203.217C203.286 39.2472 203.321 39.2814 203.321 39.3499V44.6794H203.356L206.673 39.3157C206.697 39.27 206.743 39.2472 206.813 39.2472H207.884C207.965 39.2472 208 39.2814 208 39.3499V46.8934C208 46.9732 207.965 47.0075 207.884 47.0075H206.743C206.662 47.0075 206.627 46.9732 206.627 46.8934V41.5525H206.592L203.275 46.9276C203.24 46.9847 203.193 47.0075 203.135 47.0075ZM204.986 38.494C204.055 38.494 203.496 38.0717 203.31 37.2158C203.286 37.1131 203.31 37.0561 203.368 37.0447L203.985 36.9648C204.055 36.9534 204.101 36.9762 204.124 37.0332C204.264 37.4327 204.555 37.6381 204.986 37.6381C205.416 37.6381 205.696 37.4327 205.847 37.0332C205.87 36.9762 205.917 36.9534 205.987 36.9648L206.592 37.0447C206.662 37.0561 206.685 37.1131 206.662 37.2158C206.464 38.0717 205.905 38.494 204.986 38.494Z" fill="#8A675F"/>
<path d="M54 4V55" stroke="#8A675F" stroke-width="1.1" stroke-linecap="round"/>
<path d="M304 29L54 29" stroke="#8A675F" stroke-width="1.1" stroke-linecap="round"/>
</svg>
