<svg width="344" height="80" viewBox="0 0 344 80" fill="none" xmlns="http://www.w3.org/2000/svg">
<path d="M56.9082 31.9713L36.9178 12.5021C36.5953 12.1881 35.9505 12.1881 35.4668 12.5021L28.5347 19.2535L21.6025 12.5021C21.2801 12.1881 20.6353 12.1881 20.1516 12.5021L0.322426 31.9713C0.161213 32.1283 0 32.4424 0 32.5994C0 32.7564 0.161213 33.0704 0.322426 33.2274L7.25458 39.9788L0.322426 46.8873C5.25006e-08 47.2013 5.25006e-08 47.8293 0.322426 48.3003L20.3128 67.7696C20.474 67.9266 20.7965 68.0836 20.9577 68.0836C21.1189 68.0836 21.4413 67.9266 21.6025 67.7696L27.5674 61.9602V77.1912C27.5674 77.6622 28.051 78.1333 28.5347 78.1333C29.0183 78.1333 29.502 77.6622 29.502 77.1912V61.9602L35.4668 67.7696C35.6281 67.9266 35.9505 68.0836 36.1117 68.0836C36.2729 68.0836 36.5953 67.9266 36.7565 67.7696L56.747 48.3003C57.0694 47.9863 57.0694 47.3583 56.747 46.8873L49.8148 40.1358L56.747 33.3844C57.3918 32.9134 57.3918 32.2853 56.9082 31.9713ZM29.6632 22.8648L46.2681 39.0368H36.7565L29.6632 32.2853V22.8648ZM2.41819 32.5994L20.9577 14.5432L27.245 20.6666L8.7055 38.7227L2.41819 32.5994ZM27.7286 22.8648V32.1283L20.6353 39.0368H11.1237L27.7286 22.8648ZM20.9577 65.5714L2.41819 47.5153L8.7055 41.3919L27.245 59.448L20.9577 65.5714ZM10.9625 41.0779H20.474L27.5674 47.9863V57.0929L10.9625 41.0779ZM28.6959 46.1022L22.4086 39.9788L28.6959 33.8554L34.9832 39.9788L28.6959 46.1022ZM29.6632 47.8293L36.7565 40.9209H46.2681L29.6632 57.2499V47.8293ZM54.8124 47.5153L36.2729 65.5714L29.9856 59.448L48.5251 41.3919L54.8124 47.5153ZM48.6863 38.7227L29.9856 20.6666L36.2729 14.5432L54.8124 32.5994L48.6863 38.7227Z" fill="#886761"/>
<path d="M93.8005 26.941H92.2075C92.0937 26.941 92.0449 26.893 92.0449 26.781V16.2246C92.0449 16.1126 92.0937 16.0646 92.2075 16.0646H98.5472C98.661 16.0646 98.7098 16.1126 98.7098 16.2246V17.6161C98.7098 17.7121 98.661 17.76 98.5472 17.76H94.0606C93.9956 17.76 93.9631 17.792 93.9631 17.856V26.781C93.9631 26.893 93.9143 26.941 93.8005 26.941Z" fill="#8A675F"/>
<path d="M110.463 27.1169C108.528 27.1169 107.13 26.2052 106.561 24.4938C106.366 23.918 106.269 22.9263 106.269 21.5028C106.269 20.0793 106.366 19.0876 106.561 18.5118C107.13 16.8004 108.528 15.8887 110.463 15.8887C112.413 15.8887 113.811 16.8004 114.38 18.5118C114.575 19.0876 114.673 20.0793 114.673 21.5028C114.673 22.9263 114.575 23.918 114.38 24.4938C113.811 26.2052 112.413 27.1169 110.463 27.1169ZM110.463 25.4215C111.503 25.4215 112.186 24.9416 112.527 23.998C112.657 23.5981 112.722 22.7664 112.722 21.5028C112.722 20.2392 112.657 19.4075 112.527 19.0076C112.186 18.0639 111.503 17.5841 110.463 17.5841C109.439 17.5841 108.756 18.0639 108.414 19.0076C108.284 19.4075 108.219 20.2392 108.219 21.5028C108.219 22.7664 108.284 23.5981 108.414 23.998C108.756 24.9416 109.439 25.4215 110.463 25.4215Z" fill="#8A675F"/>
<path d="M129.221 27.1169H127.595C127.498 27.1169 127.449 27.0689 127.449 26.957V25.7734C127.449 25.7094 127.417 25.6774 127.352 25.6774C124.247 25.5334 122.686 24.0619 122.686 21.2629C122.686 18.5598 124.296 17.1203 127.352 16.9923C127.417 16.9923 127.449 16.9603 127.449 16.8963V16.0326C127.449 15.9367 127.498 15.8887 127.612 15.8887H129.221C129.319 15.8887 129.367 15.9367 129.367 16.0326V16.8963C129.367 16.9603 129.4 16.9923 129.465 16.9923C132.521 17.1203 134.147 18.5598 134.147 21.2629C134.147 24.0619 132.586 25.5334 129.465 25.6774C129.4 25.6774 129.367 25.7094 129.367 25.7734V26.957C129.367 27.0689 129.319 27.1169 129.221 27.1169ZM127.352 23.998C127.417 23.998 127.449 23.966 127.449 23.902V18.7517C127.449 18.7037 127.417 18.6717 127.352 18.6717C125.466 18.7197 124.604 19.5994 124.604 21.3428C124.604 23.0383 125.515 23.918 127.352 23.998ZM129.481 23.998C131.318 23.918 132.228 23.0383 132.228 21.3428C132.228 19.5994 131.367 18.7197 129.481 18.6717C129.4 18.6717 129.367 18.7037 129.367 18.7517V23.902C129.367 23.966 129.4 23.998 129.481 23.998Z" fill="#8A675F"/>
<path d="M145.058 26.941H143.465C143.351 26.941 143.303 26.893 143.303 26.781V16.2246C143.303 16.1126 143.351 16.0646 143.465 16.0646H147.61C148.683 16.0646 149.561 16.3845 150.227 17.0083C150.91 17.6321 151.252 18.4318 151.252 19.4395C151.252 20.4471 150.91 21.2789 150.227 21.9027C149.561 22.5264 148.683 22.8303 147.61 22.8303H145.318C145.253 22.8303 145.221 22.8623 145.221 22.9263V26.781C145.221 26.893 145.172 26.941 145.058 26.941ZM145.318 21.1189H147.497C148.618 21.1189 149.333 20.4631 149.333 19.4395C149.333 18.4318 148.618 17.76 147.497 17.76H145.318C145.253 17.76 145.221 17.792 145.221 17.856V21.023C145.221 21.0869 145.253 21.1189 145.318 21.1189Z" fill="#8A675F"/>
<path d="M164.202 27.1169C162.267 27.1169 160.869 26.2052 160.3 24.4938C160.105 23.918 160.008 22.9263 160.008 21.5028C160.008 20.0793 160.105 19.0876 160.3 18.5118C160.869 16.8004 162.267 15.8887 164.202 15.8887C166.153 15.8887 167.551 16.8004 168.119 18.5118C168.315 19.0876 168.412 20.0793 168.412 21.5028C168.412 22.9263 168.315 23.918 168.119 24.4938C167.551 26.2052 166.153 27.1169 164.202 27.1169ZM164.202 25.4215C165.242 25.4215 165.925 24.9416 166.266 23.998C166.396 23.5981 166.461 22.7664 166.461 21.5028C166.461 20.2392 166.396 19.4075 166.266 19.0076C165.925 18.0639 165.242 17.5841 164.202 17.5841C163.178 17.5841 162.495 18.0639 162.154 19.0076C162.024 19.4075 161.959 20.2392 161.959 21.5028C161.959 22.7664 162.024 23.5981 162.154 23.998C162.495 24.9416 163.178 25.4215 164.202 25.4215Z" fill="#8A675F"/>
<path d="M187.04 29.2122H185.529C185.447 29.2122 185.399 29.1642 185.399 29.0683V27.0369C185.399 26.973 185.366 26.941 185.301 26.941H178.002C177.888 26.941 177.84 26.893 177.84 26.797V16.2246C177.84 16.1126 177.888 16.0646 178.002 16.0646H179.612C179.709 16.0646 179.758 16.1126 179.758 16.2246V25.1496C179.758 25.2135 179.79 25.2455 179.855 25.2455H183.952C184.017 25.2455 184.049 25.2135 184.049 25.1496V16.2246C184.049 16.1126 184.098 16.0646 184.196 16.0646H185.821C185.919 16.0646 185.967 16.1126 185.967 16.2246V25.1496C185.967 25.2135 186 25.2455 186.065 25.2455H187.024C187.138 25.2455 187.187 25.2935 187.187 25.3895V29.0683C187.187 29.1642 187.138 29.2122 187.04 29.2122Z" fill="#8A675F"/>
<path d="M203.085 26.941H196.16C196.046 26.941 195.997 26.893 195.997 26.781V16.2246C195.997 16.1126 196.046 16.0646 196.16 16.0646H203.085C203.198 16.0646 203.247 16.1126 203.247 16.2246V17.6001C203.247 17.7121 203.198 17.76 203.085 17.76H198.013C197.948 17.76 197.915 17.792 197.915 17.856V20.5111C197.915 20.5751 197.948 20.6071 198.013 20.6071H202.288C202.402 20.6071 202.451 20.6551 202.451 20.767V22.1426C202.451 22.2545 202.402 22.3025 202.288 22.3025H198.013C197.948 22.3025 197.915 22.3345 197.915 22.3985V25.1496C197.915 25.2135 197.948 25.2455 198.013 25.2455H203.085C203.198 25.2455 203.247 25.2935 203.247 25.4055V26.781C203.247 26.893 203.198 26.941 203.085 26.941Z" fill="#8A675F"/>
<path d="M214.339 26.941H212.746C212.632 26.941 212.583 26.893 212.583 26.781V16.2246C212.583 16.1126 212.632 16.0646 212.746 16.0646H214.339C214.452 16.0646 214.501 16.1126 214.501 16.2246V20.5111C214.501 20.5751 214.534 20.6071 214.599 20.6071H218.809C218.874 20.6071 218.907 20.5751 218.907 20.5111V16.2246C218.907 16.1126 218.955 16.0646 219.069 16.0646H220.662C220.776 16.0646 220.825 16.1126 220.825 16.2246V26.781C220.825 26.893 220.776 26.941 220.662 26.941H219.069C218.955 26.941 218.907 26.893 218.907 26.781V22.3985C218.907 22.3345 218.874 22.3025 218.809 22.3025H214.599C214.534 22.3025 214.501 22.3345 214.501 22.3985V26.781C214.501 26.893 214.452 26.941 214.339 26.941Z" fill="#8A675F"/>
<path d="M234.63 26.941H233.036C232.923 26.941 232.874 26.893 232.874 26.781V17.856C232.874 17.792 232.841 17.76 232.776 17.76H229.883C229.769 17.76 229.72 17.7121 229.72 17.6001V16.2246C229.72 16.1126 229.769 16.0646 229.883 16.0646H237.783C237.897 16.0646 237.946 16.1126 237.946 16.2246V17.6001C237.946 17.7121 237.897 17.76 237.783 17.76H234.89C234.825 17.76 234.792 17.792 234.792 17.856V26.781C234.792 26.893 234.743 26.941 234.63 26.941Z" fill="#8A675F"/>
<path d="M248.59 26.941H246.997C246.883 26.941 246.834 26.893 246.834 26.781V16.2246C246.834 16.1126 246.883 16.0646 246.997 16.0646H251.142C252.215 16.0646 253.093 16.3845 253.759 17.0083C254.442 17.6321 254.783 18.4318 254.783 19.4395C254.783 20.4471 254.442 21.2789 253.759 21.9027C253.093 22.5264 252.215 22.8303 251.142 22.8303H248.85C248.785 22.8303 248.753 22.8623 248.753 22.9263V26.781C248.753 26.893 248.704 26.941 248.59 26.941ZM248.85 21.1189H251.028C252.15 21.1189 252.865 20.4631 252.865 19.4395C252.865 18.4318 252.15 17.76 251.028 17.76H248.85C248.785 17.76 248.753 17.792 248.753 17.856V21.023C248.753 21.0869 248.785 21.1189 248.85 21.1189Z" fill="#8A675F"/>
<path d="M93.8005 63.7287H92.2075C92.0937 63.7287 92.0449 63.6807 92.0449 63.5687V53.0123C92.0449 52.9003 92.0937 52.8523 92.2075 52.8523H93.8005C93.9143 52.8523 93.9631 52.9003 93.9631 53.0123V57.2989C93.9631 57.3628 93.9956 57.3948 94.0606 57.3948H98.2709C98.3359 57.3948 98.3684 57.3628 98.3684 57.2989V53.0123C98.3684 52.9003 98.4172 52.8523 98.531 52.8523H100.124C100.238 52.8523 100.287 52.9003 100.287 53.0123V63.5687C100.287 63.6807 100.238 63.7287 100.124 63.7287H98.531C98.4172 63.7287 98.3684 63.6807 98.3684 63.5687V59.1862C98.3684 59.1222 98.3359 59.0903 98.2709 59.0903H94.0606C93.9956 59.0903 93.9631 59.1222 93.9631 59.1862V63.5687C93.9631 63.6807 93.9143 63.7287 93.8005 63.7287Z" fill="#8A675F"/>
<path d="M110.044 63.7287H108.467C108.353 63.7287 108.321 63.6807 108.353 63.5687L112.141 53.0123C112.173 52.9003 112.238 52.8523 112.352 52.8523H113.848C113.961 52.8523 114.026 52.9003 114.059 53.0123L117.798 63.5687C117.83 63.6807 117.798 63.7287 117.684 63.7287H116.091C115.977 63.7287 115.912 63.6807 115.88 63.5687L115.148 61.4575H110.987L110.255 63.5687C110.223 63.6807 110.157 63.7287 110.044 63.7287ZM113.051 55.5554L111.572 59.778H114.563L113.1 55.5554H113.051Z" fill="#8A675F"/>
<path d="M148.562 65.9999H147.05C146.969 65.9999 146.92 65.952 146.92 65.856V63.8247C146.92 63.7607 146.888 63.7287 146.823 63.7287H139.524C139.41 63.7287 139.361 63.6807 139.361 63.5847V53.0123C139.361 52.9003 139.41 52.8523 139.524 52.8523H141.133C141.231 52.8523 141.279 52.9003 141.279 53.0123V61.9373C141.279 62.0013 141.312 62.0333 141.377 62.0333H145.473C145.538 62.0333 145.571 62.0013 145.571 61.9373V53.0123C145.571 52.9003 145.62 52.8523 145.717 52.8523H147.343C147.44 52.8523 147.489 52.9003 147.489 53.0123V61.9373C147.489 62.0013 147.522 62.0333 147.587 62.0333H148.546C148.659 62.0333 148.708 62.0812 148.708 62.1772V65.856C148.708 65.952 148.659 65.9999 148.562 65.9999Z" fill="#8A675F"/>
<path d="M162.444 63.7287H158.494C158.38 63.7287 158.331 63.6807 158.331 63.5687V53.0123C158.331 52.9003 158.38 52.8523 158.494 52.8523H162.607C164.883 52.8523 166.053 53.956 166.053 55.7474C166.053 56.819 165.63 57.5868 164.769 58.0346V58.0986C165.549 58.4025 166.248 59.2982 166.248 60.5298C166.248 62.6571 164.899 63.7287 162.444 63.7287ZM160.347 62.0653H162.656C163.712 62.0653 164.33 61.4575 164.33 60.5458C164.33 59.6341 163.712 59.0423 162.656 59.0423H160.347C160.282 59.0423 160.25 59.0743 160.25 59.1382V61.9693C160.25 62.0333 160.282 62.0653 160.347 62.0653ZM160.347 57.3788H162.558C163.533 57.3788 164.135 56.803 164.135 55.9553C164.135 55.0756 163.533 54.5158 162.558 54.5158H160.347C160.282 54.5158 160.25 54.5478 160.25 54.6118V57.2829C160.25 57.3468 160.282 57.3788 160.347 57.3788Z" fill="#8A675F"/>
<path d="M183.421 63.7287H176.496C176.382 63.7287 176.333 63.6807 176.333 63.5687V53.0123C176.333 52.9003 176.382 52.8523 176.496 52.8523H183.421C183.535 52.8523 183.583 52.9003 183.583 53.0123V54.3878C183.583 54.4998 183.535 54.5478 183.421 54.5478H178.349C178.284 54.5478 178.252 54.5798 178.252 54.6437V57.2989C178.252 57.3628 178.284 57.3948 178.349 57.3948H182.624C182.738 57.3948 182.787 57.4428 182.787 57.5548V58.9303C182.787 59.0423 182.738 59.0903 182.624 59.0903H178.349C178.284 59.0903 178.252 59.1222 178.252 59.1862V61.9373C178.252 62.0013 178.284 62.0333 178.349 62.0333H183.421C183.535 62.0333 183.583 62.0812 183.583 62.1932V63.5687C183.583 63.6807 183.535 63.7287 183.421 63.7287Z" fill="#8A675F"/>
<path d="M196.967 63.7287H195.374C195.26 63.7287 195.211 63.6807 195.211 63.5687V54.6437C195.211 54.5798 195.179 54.5478 195.114 54.5478H192.22C192.107 54.5478 192.058 54.4998 192.058 54.3878V53.0123C192.058 52.9003 192.107 52.8523 192.22 52.8523H200.121C200.234 52.8523 200.283 52.9003 200.283 53.0123V54.3878C200.283 54.4998 200.234 54.5478 200.121 54.5478H197.227C197.162 54.5478 197.13 54.5798 197.13 54.6437V63.5687C197.13 63.6807 197.081 63.7287 196.967 63.7287Z" fill="#8A675F"/>
<path d="M212.723 63.9046C210.789 63.9046 209.391 62.9929 208.822 61.2815C208.627 60.7057 208.529 59.714 208.529 58.2905C208.529 56.867 208.627 55.8753 208.822 55.2995C209.391 53.5881 210.789 52.6764 212.723 52.6764C214.674 52.6764 216.072 53.5881 216.641 55.2995C216.836 55.8753 216.934 56.867 216.934 58.2905C216.934 59.714 216.836 60.7057 216.641 61.2815C216.072 62.9929 214.674 63.9046 212.723 63.9046ZM212.723 62.2092C213.764 62.2092 214.446 61.7294 214.788 60.7857C214.918 60.3858 214.983 59.5541 214.983 58.2905C214.983 57.0269 214.918 56.1952 214.788 55.7954C214.446 54.8517 213.764 54.3718 212.723 54.3718C211.699 54.3718 211.016 54.8517 210.675 55.7954C210.545 56.1952 210.48 57.0269 210.48 58.2905C210.48 59.5541 210.545 60.3858 210.675 60.7857C211.016 61.7294 211.699 62.2092 212.723 62.2092Z" fill="#8A675F"/>
<path d="M233.709 63.7287H232.083C231.986 63.7287 231.937 63.6807 231.937 63.5687V59.6181C231.937 59.5381 231.888 59.5061 231.79 59.5221C230.864 59.794 229.97 59.922 229.108 59.922C227.093 59.922 226.085 58.9783 226.085 57.0909V52.9963C226.085 52.9003 226.133 52.8523 226.247 52.8523H227.84C227.954 52.8523 228.003 52.9003 228.003 52.9963V56.6911C228.003 57.6987 228.539 58.1946 229.628 58.1946C230.344 58.1946 231.043 58.0826 231.742 57.8747C231.872 57.8427 231.937 57.7787 231.937 57.6667V52.9963C231.937 52.9003 231.986 52.8523 232.083 52.8523H233.692C233.806 52.8523 233.855 52.9003 233.855 52.9963V63.5687C233.855 63.6807 233.806 63.7287 233.709 63.7287Z" fill="#8A675F"/>
<path d="M245.369 63.7287H243.776C243.663 63.7287 243.614 63.6807 243.614 63.5687V53.0123C243.614 52.9003 243.663 52.8523 243.776 52.8523H245.369C245.483 52.8523 245.532 52.9003 245.532 53.0123V57.2989C245.532 57.3628 245.564 57.3948 245.629 57.3948H249.84C249.905 57.3948 249.937 57.3628 249.937 57.2989V53.0123C249.937 52.9003 249.986 52.8523 250.1 52.8523H251.693C251.807 52.8523 251.855 52.9003 251.855 53.0123V63.5687C251.855 63.6807 251.807 63.7287 251.693 63.7287H250.1C249.986 63.7287 249.937 63.6807 249.937 63.5687V59.1862C249.937 59.1222 249.905 59.0903 249.84 59.0903H245.629C245.564 59.0903 245.532 59.1222 245.532 59.1862V63.5687C245.532 63.6807 245.483 63.7287 245.369 63.7287Z" fill="#8A675F"/>
<path d="M265.481 63.9046C263.547 63.9046 262.149 62.9929 261.58 61.2815C261.385 60.7057 261.287 59.714 261.287 58.2905C261.287 56.867 261.385 55.8753 261.58 55.2995C262.149 53.5881 263.547 52.6764 265.481 52.6764C267.432 52.6764 268.83 53.5881 269.399 55.2995C269.594 55.8753 269.692 56.867 269.692 58.2905C269.692 59.714 269.594 60.7057 269.399 61.2815C268.83 62.9929 267.432 63.9046 265.481 63.9046ZM265.481 62.2092C266.522 62.2092 267.204 61.7294 267.546 60.7857C267.676 60.3858 267.741 59.5541 267.741 58.2905C267.741 57.0269 267.676 56.1952 267.546 55.7954C267.204 54.8517 266.522 54.3718 265.481 54.3718C264.457 54.3718 263.775 54.8517 263.433 55.7954C263.303 56.1952 263.238 57.0269 263.238 58.2905C263.238 59.5541 263.303 60.3858 263.433 60.7857C263.775 61.7294 264.457 62.2092 265.481 62.2092Z" fill="#8A675F"/>
<path d="M280.777 63.7287H279.282C279.168 63.7287 279.119 63.6807 279.119 63.5687V52.9963C279.119 52.9003 279.168 52.8523 279.282 52.8523H280.891C280.989 52.8523 281.037 52.9003 281.037 52.9963V60.4658H281.086L285.719 52.9483C285.752 52.8843 285.817 52.8523 285.914 52.8523H287.41C287.523 52.8523 287.572 52.9003 287.572 52.9963V63.5687C287.572 63.6807 287.523 63.7287 287.41 63.7287H285.817C285.703 63.7287 285.654 63.6807 285.654 63.5687V56.0833H285.605L280.972 63.6167C280.924 63.6967 280.859 63.7287 280.777 63.7287ZM283.362 51.7967C282.061 51.7967 281.281 51.2049 281.021 50.0053C280.989 49.8613 281.021 49.7814 281.102 49.7654L281.964 49.6534C282.061 49.6374 282.126 49.6694 282.159 49.7494C282.354 50.3092 282.76 50.5971 283.362 50.5971C283.963 50.5971 284.354 50.3092 284.565 49.7494C284.597 49.6694 284.662 49.6374 284.76 49.6534L285.605 49.7654C285.703 49.7814 285.735 49.8613 285.703 50.0053C285.426 51.2049 284.646 51.7967 283.362 51.7967Z" fill="#8A675F"/>
<path fill-rule="evenodd" clip-rule="evenodd" d="M306 40.8671H73.9883V39.1338H306V40.8671Z" fill="#8A675F"/>
<path fill-rule="evenodd" clip-rule="evenodd" d="M73.9882 79C73.5018 79 73.1074 78.612 73.1074 78.1333L73.1074 1.86667C73.1074 1.38802 73.5018 1 73.9882 1C74.4747 1 74.869 1.38802 74.869 1.86667L74.8691 78.1333C74.8691 78.612 74.4747 79 73.9882 79Z" fill="#8A675F"/>
<path d="M73.9883 78.1333V1" stroke="#8A675F" stroke-width="1.8" stroke-linecap="round" stroke-linejoin="round"/>
</svg>
