<svg width="42" height="43" viewBox="0 0 42 43" fill="none" xmlns="http://www.w3.org/2000/svg">
<g id="Picto_&#208;&#191;&#208;&#190;&#208;&#180;&#208;&#177;&#208;&#190;&#209;&#128;">
<g id="Union">
<path d="M20.4767 28.748V29.7766H21.5053V28.748H20.4767Z" fill="#8A675F"/>
<path d="M20.4767 27.7194V26.6908H21.5053V27.7194H20.4767Z" fill="#8A675F"/>
<path d="M20.4767 24.6337V25.6623H21.5053V24.6337H20.4767Z" fill="#8A675F"/>
<path d="M20.4767 23.6051V22.5766H21.5053V23.6051H20.4767Z" fill="#8A675F"/>
<path d="M12.2481 21.548H13.2767V20.5194H12.2481V21.548Z" fill="#8A675F"/>
<path d="M15.3338 21.548H14.3053V20.5194H15.3338V21.548Z" fill="#8A675F"/>
<path d="M16.3624 21.548H17.391V20.5194H16.3624V21.548Z" fill="#8A675F"/>
<path d="M19.4481 21.548H18.4195V20.5194H19.4481V21.548Z" fill="#8A675F"/>
<path d="M20.4767 21.548H21.5053V20.5194H20.4767V21.548Z" fill="#8A675F"/>
<path d="M23.4118 19.3402L22.8975 19.8545L22.1702 19.1272L22.6845 18.6129L23.4118 19.3402Z" fill="#8A675F"/>
<path d="M24.4403 18.3116L24.9546 17.7974L24.2273 17.0701L23.713 17.5843L24.4403 18.3116Z" fill="#8A675F"/>
<path fill-rule="evenodd" clip-rule="evenodd" d="M12.2484 10.2337H14.3053V15.6778L9.1624 20.8207V32.135L6.91046 34.3869L5.35322 32.8623L0.714304 41.2758L9.02803 36.4602L7.64546 35.1065L9.88971 32.8623H21.204L26.3469 27.7194H31.7912V29.7766L41.0484 27.2053L31.7912 24.6337V26.6908H26.6481V15.3766H15.3338V10.2337H17.3912L14.82 0.976562L12.2484 10.2337ZM10.191 21.2467L15.0326 16.4051H25.6195V26.9921L20.778 31.8337H10.191V21.2467Z" fill="#8A675F"/>
</g>
</g>
</svg>
